<?xml version="1.0" encoding="UTF-8"?>
<!DOCTYPE svg PUBLIC "-//W3C//DTD SVG 1.1//EN" "http://www.w3.org/Graphics/SVG/1.1/DTD/svg11.dtd">
<svg width="160mm" height="90mm" viewBox="0 0 16000 9000" version="1.1" xmlns="http://www.w3.org/2000/svg" stroke-width="28.222" stroke-linejoin="round" xml:space="preserve">
 <path fill="rgb(255,255,255)" stroke="none" d="M 8000,8999 L 0,8999 0,0 15999,0 15999,8999 8000,8999 Z"/>
 <path fill="none" stroke="rgb(179,179,179)" stroke-linejoin="round" d="M 7257,7192 L 2058,7192 2058,1474 12455,1474 12455,7192 7257,7192 Z"/>
 <path fill="none" stroke="rgb(179,179,179)" stroke-linejoin="round" d="M 12455,7191 L 2058,7191"/>
 <path fill="none" stroke="rgb(179,179,179)" stroke-linejoin="round" d="M 12455,6237 L 2058,6237"/>
 <path fill="none" stroke="rgb(179,179,179)" stroke-linejoin="round" d="M 12455,5284 L 2058,5284"/>
 <path fill="none" stroke="rgb(179,179,179)" stroke-linejoin="round" d="M 12455,4332 L 2058,4332"/>
 <path fill="none" stroke="rgb(179,179,179)" stroke-linejoin="round" d="M 12455,3379 L 2058,3379"/>
 <path fill="none" stroke="rgb(179,179,179)" stroke-linejoin="round" d="M 12455,2426 L 2058,2426"/>
 <path fill="none" stroke="rgb(179,179,179)" stroke-linejoin="round" d="M 12455,1473 L 2058,1473"/>
 <path fill="none" stroke="rgb(179,179,179)" stroke-linejoin="round" d="M 2058,7341 L 2058,7191"/>
 <path fill="none" stroke="rgb(179,179,179)" stroke-linejoin="round" d="M 2058,7341 L 2058,7191"/>
 <path fill="none" stroke="rgb(179,179,179)" stroke-linejoin="round" d="M 2800,7341 L 2800,7191"/>
 <path fill="none" stroke="rgb(179,179,179)" stroke-linejoin="round" d="M 2800,7341 L 2800,7191"/>
 <path fill="none" stroke="rgb(179,179,179)" stroke-linejoin="round" d="M 3543,7341 L 3543,7191"/>
 <path fill="none" stroke="rgb(179,179,179)" stroke-linejoin="round" d="M 3543,7341 L 3543,7191"/>
 <path fill="none" stroke="rgb(179,179,179)" stroke-linejoin="round" d="M 4286,7341 L 4286,7191"/>
 <path fill="none" stroke="rgb(179,179,179)" stroke-linejoin="round" d="M 4286,7341 L 4286,7191"/>
 <path fill="none" stroke="rgb(179,179,179)" stroke-linejoin="round" d="M 5028,7341 L 5028,7191"/>
 <path fill="none" stroke="rgb(179,179,179)" stroke-linejoin="round" d="M 5028,7341 L 5028,7191"/>
 <path fill="none" stroke="rgb(179,179,179)" stroke-linejoin="round" d="M 5771,7341 L 5771,7191"/>
 <path fill="none" stroke="rgb(179,179,179)" stroke-linejoin="round" d="M 5771,7341 L 5771,7191"/>
 <path fill="none" stroke="rgb(179,179,179)" stroke-linejoin="round" d="M 6514,7341 L 6514,7191"/>
 <path fill="none" stroke="rgb(179,179,179)" stroke-linejoin="round" d="M 6514,7341 L 6514,7191"/>
 <path fill="none" stroke="rgb(179,179,179)" stroke-linejoin="round" d="M 7257,7341 L 7257,7191"/>
 <path fill="none" stroke="rgb(179,179,179)" stroke-linejoin="round" d="M 7257,7341 L 7257,7191"/>
 <path fill="none" stroke="rgb(179,179,179)" stroke-linejoin="round" d="M 7999,7341 L 7999,7191"/>
 <path fill="none" stroke="rgb(179,179,179)" stroke-linejoin="round" d="M 7999,7341 L 7999,7191"/>
 <path fill="none" stroke="rgb(179,179,179)" stroke-linejoin="round" d="M 8741,7341 L 8741,7191"/>
 <path fill="none" stroke="rgb(179,179,179)" stroke-linejoin="round" d="M 8741,7341 L 8741,7191"/>
 <path fill="none" stroke="rgb(179,179,179)" stroke-linejoin="round" d="M 9484,7341 L 9484,7191"/>
 <path fill="none" stroke="rgb(179,179,179)" stroke-linejoin="round" d="M 9484,7341 L 9484,7191"/>
 <path fill="none" stroke="rgb(179,179,179)" stroke-linejoin="round" d="M 10226,7341 L 10226,7191"/>
 <path fill="none" stroke="rgb(179,179,179)" stroke-linejoin="round" d="M 10226,7341 L 10226,7191"/>
 <path fill="none" stroke="rgb(179,179,179)" stroke-linejoin="round" d="M 10969,7341 L 10969,7191"/>
 <path fill="none" stroke="rgb(179,179,179)" stroke-linejoin="round" d="M 10969,7341 L 10969,7191"/>
 <path fill="none" stroke="rgb(179,179,179)" stroke-linejoin="round" d="M 11712,7341 L 11712,7191"/>
 <path fill="none" stroke="rgb(179,179,179)" stroke-linejoin="round" d="M 11712,7341 L 11712,7191"/>
 <path fill="none" stroke="rgb(179,179,179)" stroke-linejoin="round" d="M 12455,7341 L 12455,7191"/>
 <path fill="none" stroke="rgb(179,179,179)" stroke-linejoin="round" d="M 12455,7341 L 12455,7191"/>
 <path fill="none" stroke="rgb(179,179,179)" stroke-linejoin="round" d="M 2058,7191 L 12455,7191"/>
 <path fill="none" stroke="rgb(179,179,179)" stroke-linejoin="round" d="M 1908,7191 L 2058,7191"/>
 <path fill="none" stroke="rgb(179,179,179)" stroke-linejoin="round" d="M 1908,7191 L 2058,7191"/>
 <path fill="none" stroke="rgb(179,179,179)" stroke-linejoin="round" d="M 1908,6237 L 2058,6237"/>
 <path fill="none" stroke="rgb(179,179,179)" stroke-linejoin="round" d="M 1908,6237 L 2058,6237"/>
 <path fill="none" stroke="rgb(179,179,179)" stroke-linejoin="round" d="M 1908,5284 L 2058,5284"/>
 <path fill="none" stroke="rgb(179,179,179)" stroke-linejoin="round" d="M 1908,5284 L 2058,5284"/>
 <path fill="none" stroke="rgb(179,179,179)" stroke-linejoin="round" d="M 1908,4332 L 2058,4332"/>
 <path fill="none" stroke="rgb(179,179,179)" stroke-linejoin="round" d="M 1908,4332 L 2058,4332"/>
 <path fill="none" stroke="rgb(179,179,179)" stroke-linejoin="round" d="M 1908,3379 L 2058,3379"/>
 <path fill="none" stroke="rgb(179,179,179)" stroke-linejoin="round" d="M 1908,3379 L 2058,3379"/>
 <path fill="none" stroke="rgb(179,179,179)" stroke-linejoin="round" d="M 1908,2426 L 2058,2426"/>
 <path fill="none" stroke="rgb(179,179,179)" stroke-linejoin="round" d="M 1908,2426 L 2058,2426"/>
 <path fill="none" stroke="rgb(179,179,179)" stroke-linejoin="round" d="M 1908,1473 L 2058,1473"/>
 <path fill="none" stroke="rgb(179,179,179)" stroke-linejoin="round" d="M 1908,1473 L 2058,1473"/>
 <path fill="none" stroke="rgb(179,179,179)" stroke-linejoin="round" d="M 2058,7191 L 2058,1473"/>
 <path fill="none" stroke="rgb(0,69,134)" stroke-width="80" stroke-linejoin="round" d="M 2058,3360 L 2800,3734 3543,4259 4286,6274 5028,3360 5771,3342 6514,2976 7257,2976 7999,2986 8741,3173 9484,3342 10226,2976 10969,3159 11712,3360 12455,3159"/>
 <path fill="rgb(0,69,134)" stroke="none" d="M 1933,3235 L 1933,3485 2183,3485 2183,3235 1933,3235 Z"/>
 <path fill="none" stroke="rgb(0,69,134)" stroke-linejoin="round" d="M 1933,3235 L 1933,3485 2183,3485 2183,3235 1933,3235 Z"/>
 <path fill="rgb(0,69,134)" stroke="none" d="M 2675,3609 L 2675,3859 2925,3859 2925,3609 2675,3609 Z"/>
 <path fill="none" stroke="rgb(0,69,134)" stroke-linejoin="round" d="M 2675,3609 L 2675,3859 2925,3859 2925,3609 2675,3609 Z"/>
 <path fill="rgb(0,69,134)" stroke="none" d="M 3418,4134 L 3418,4384 3668,4384 3668,4134 3418,4134 Z"/>
 <path fill="none" stroke="rgb(0,69,134)" stroke-linejoin="round" d="M 3418,4134 L 3418,4384 3668,4384 3668,4134 3418,4134 Z"/>
 <path fill="rgb(0,69,134)" stroke="none" d="M 4161,6149 L 4161,6399 4411,6399 4411,6149 4161,6149 Z"/>
 <path fill="none" stroke="rgb(0,69,134)" stroke-linejoin="round" d="M 4161,6149 L 4161,6399 4411,6399 4411,6149 4161,6149 Z"/>
 <path fill="rgb(0,69,134)" stroke="none" d="M 4903,3235 L 4903,3485 5153,3485 5153,3235 4903,3235 Z"/>
 <path fill="none" stroke="rgb(0,69,134)" stroke-linejoin="round" d="M 4903,3235 L 4903,3485 5153,3485 5153,3235 4903,3235 Z"/>
 <path fill="rgb(0,69,134)" stroke="none" d="M 5646,3217 L 5646,3467 5896,3467 5896,3217 5646,3217 Z"/>
 <path fill="none" stroke="rgb(0,69,134)" stroke-linejoin="round" d="M 5646,3217 L 5646,3467 5896,3467 5896,3217 5646,3217 Z"/>
 <path fill="rgb(0,69,134)" stroke="none" d="M 6389,2851 L 6389,3101 6639,3101 6639,2851 6389,2851 Z"/>
 <path fill="none" stroke="rgb(0,69,134)" stroke-linejoin="round" d="M 6389,2851 L 6389,3101 6639,3101 6639,2851 6389,2851 Z"/>
 <path fill="rgb(0,69,134)" stroke="none" d="M 7132,2851 L 7132,3101 7382,3101 7382,2851 7132,2851 Z"/>
 <path fill="none" stroke="rgb(0,69,134)" stroke-linejoin="round" d="M 7132,2851 L 7132,3101 7382,3101 7382,2851 7132,2851 Z"/>
 <path fill="rgb(0,69,134)" stroke="none" d="M 7874,2861 L 7874,3111 8123,3111 8123,2861 7874,2861 Z"/>
 <path fill="none" stroke="rgb(0,69,134)" stroke-linejoin="round" d="M 7874,2861 L 7874,3111 8123,3111 8123,2861 7874,2861 Z"/>
 <path fill="rgb(0,69,134)" stroke="none" d="M 8616,3048 L 8616,3298 8866,3298 8866,3048 8616,3048 Z"/>
 <path fill="none" stroke="rgb(0,69,134)" stroke-linejoin="round" d="M 8616,3048 L 8616,3298 8866,3298 8866,3048 8616,3048 Z"/>
 <path fill="rgb(0,69,134)" stroke="none" d="M 9359,3217 L 9359,3467 9609,3467 9609,3217 9359,3217 Z"/>
 <path fill="none" stroke="rgb(0,69,134)" stroke-linejoin="round" d="M 9359,3217 L 9359,3467 9609,3467 9609,3217 9359,3217 Z"/>
 <path fill="rgb(0,69,134)" stroke="none" d="M 10101,2851 L 10101,3101 10351,3101 10351,2851 10101,2851 Z"/>
 <path fill="none" stroke="rgb(0,69,134)" stroke-linejoin="round" d="M 10101,2851 L 10101,3101 10351,3101 10351,2851 10101,2851 Z"/>
 <path fill="rgb(0,69,134)" stroke="none" d="M 10844,3034 L 10844,3284 11094,3284 11094,3034 10844,3034 Z"/>
 <path fill="none" stroke="rgb(0,69,134)" stroke-linejoin="round" d="M 10844,3034 L 10844,3284 11094,3284 11094,3034 10844,3034 Z"/>
 <path fill="rgb(0,69,134)" stroke="none" d="M 11587,3235 L 11587,3485 11837,3485 11837,3235 11587,3235 Z"/>
 <path fill="none" stroke="rgb(0,69,134)" stroke-linejoin="round" d="M 11587,3235 L 11587,3485 11837,3485 11837,3235 11587,3235 Z"/>
 <path fill="rgb(0,69,134)" stroke="none" d="M 12330,3034 L 12330,3284 12580,3284 12580,3034 12330,3034 Z"/>
 <path fill="none" stroke="rgb(0,69,134)" stroke-linejoin="round" d="M 12330,3034 L 12330,3284 12580,3284 12580,3034 12330,3034 Z"/>
 <path fill="none" stroke="rgb(255,66,14)" stroke-width="80" stroke-linejoin="round" d="M 2058,2446 L 2800,3129 3543,4083 4286,5781 5028,2446 5771,2446 6514,2633 7257,2446 7999,2446 8741,2508 9484,2550 10226,2446 10969,2446 11712,2446 12455,2446"/>
 <path fill="rgb(255,66,14)" stroke="none" d="M 1933,2446 L 2058,2571 2183,2446 2058,2321 1933,2446 Z"/>
 <path fill="none" stroke="rgb(255,66,14)" stroke-linejoin="round" d="M 1933,2446 L 2058,2571 2183,2446 2058,2321 1933,2446 Z"/>
 <path fill="rgb(255,66,14)" stroke="none" d="M 2675,3129 L 2800,3254 2925,3129 2800,3004 2675,3129 Z"/>
 <path fill="none" stroke="rgb(255,66,14)" stroke-linejoin="round" d="M 2675,3129 L 2800,3254 2925,3129 2800,3004 2675,3129 Z"/>
 <path fill="rgb(255,66,14)" stroke="none" d="M 3418,4083 L 3543,4208 3668,4083 3543,3958 3418,4083 Z"/>
 <path fill="none" stroke="rgb(255,66,14)" stroke-linejoin="round" d="M 3418,4083 L 3543,4208 3668,4083 3543,3958 3418,4083 Z"/>
 <path fill="rgb(255,66,14)" stroke="none" d="M 4161,5781 L 4286,5906 4411,5781 4286,5656 4161,5781 Z"/>
 <path fill="none" stroke="rgb(255,66,14)" stroke-linejoin="round" d="M 4161,5781 L 4286,5906 4411,5781 4286,5656 4161,5781 Z"/>
 <path fill="rgb(255,66,14)" stroke="none" d="M 4903,2446 L 5028,2571 5153,2446 5028,2321 4903,2446 Z"/>
 <path fill="none" stroke="rgb(255,66,14)" stroke-linejoin="round" d="M 4903,2446 L 5028,2571 5153,2446 5028,2321 4903,2446 Z"/>
 <path fill="rgb(255,66,14)" stroke="none" d="M 5646,2446 L 5771,2571 5896,2446 5771,2321 5646,2446 Z"/>
 <path fill="none" stroke="rgb(255,66,14)" stroke-linejoin="round" d="M 5646,2446 L 5771,2571 5896,2446 5771,2321 5646,2446 Z"/>
 <path fill="rgb(255,66,14)" stroke="none" d="M 6389,2633 L 6514,2758 6639,2633 6514,2508 6389,2633 Z"/>
 <path fill="none" stroke="rgb(255,66,14)" stroke-linejoin="round" d="M 6389,2633 L 6514,2758 6639,2633 6514,2508 6389,2633 Z"/>
 <path fill="rgb(255,66,14)" stroke="none" d="M 7132,2446 L 7257,2571 7382,2446 7257,2321 7132,2446 Z"/>
 <path fill="none" stroke="rgb(255,66,14)" stroke-linejoin="round" d="M 7132,2446 L 7257,2571 7382,2446 7257,2321 7132,2446 Z"/>
 <path fill="rgb(255,66,14)" stroke="none" d="M 7874,2446 L 7999,2571 8123,2446 7999,2321 7874,2446 Z"/>
 <path fill="none" stroke="rgb(255,66,14)" stroke-linejoin="round" d="M 7874,2446 L 7999,2571 8123,2446 7999,2321 7874,2446 Z"/>
 <path fill="rgb(255,66,14)" stroke="none" d="M 8616,2508 L 8741,2633 8866,2508 8741,2383 8616,2508 Z"/>
 <path fill="none" stroke="rgb(255,66,14)" stroke-linejoin="round" d="M 8616,2508 L 8741,2633 8866,2508 8741,2383 8616,2508 Z"/>
 <path fill="rgb(255,66,14)" stroke="none" d="M 9359,2550 L 9484,2675 9609,2550 9484,2425 9359,2550 Z"/>
 <path fill="none" stroke="rgb(255,66,14)" stroke-linejoin="round" d="M 9359,2550 L 9484,2675 9609,2550 9484,2425 9359,2550 Z"/>
 <path fill="rgb(255,66,14)" stroke="none" d="M 10101,2446 L 10226,2571 10351,2446 10226,2321 10101,2446 Z"/>
 <path fill="none" stroke="rgb(255,66,14)" stroke-linejoin="round" d="M 10101,2446 L 10226,2571 10351,2446 10226,2321 10101,2446 Z"/>
 <path fill="rgb(255,66,14)" stroke="none" d="M 10844,2446 L 10969,2571 11094,2446 10969,2321 10844,2446 Z"/>
 <path fill="none" stroke="rgb(255,66,14)" stroke-linejoin="round" d="M 10844,2446 L 10969,2571 11094,2446 10969,2321 10844,2446 Z"/>
 <path fill="rgb(255,66,14)" stroke="none" d="M 11587,2446 L 11712,2571 11837,2446 11712,2321 11587,2446 Z"/>
 <path fill="none" stroke="rgb(255,66,14)" stroke-linejoin="round" d="M 11587,2446 L 11712,2571 11837,2446 11712,2321 11587,2446 Z"/>
 <path fill="rgb(255,66,14)" stroke="none" d="M 12330,2446 L 12455,2571 12580,2446 12455,2321 12330,2446 Z"/>
 <path fill="none" stroke="rgb(255,66,14)" stroke-linejoin="round" d="M 12330,2446 L 12455,2571 12580,2446 12455,2321 12330,2446 Z"/>
 <text class="TextShape"><tspan class="TextParagraph" font-family="Liberation Sans, sans-serif" font-size="353px" font-weight="400"><tspan class="TextPosition" x="1965" y="7759"><tspan fill="rgb(0,0,0)" stroke="none">1</tspan></tspan></tspan></text>
 <text class="TextShape"><tspan class="TextParagraph" font-family="Liberation Sans, sans-serif" font-size="353px" font-weight="400"><tspan class="TextPosition" x="2707" y="7759"><tspan fill="rgb(0,0,0)" stroke="none">2</tspan></tspan></tspan></text>
 <text class="TextShape"><tspan class="TextParagraph" font-family="Liberation Sans, sans-serif" font-size="353px" font-weight="400"><tspan class="TextPosition" x="3450" y="7759"><tspan fill="rgb(0,0,0)" stroke="none">3</tspan></tspan></tspan></text>
 <text class="TextShape"><tspan class="TextParagraph" font-family="Liberation Sans, sans-serif" font-size="353px" font-weight="400"><tspan class="TextPosition" x="4193" y="7759"><tspan fill="rgb(0,0,0)" stroke="none">4</tspan></tspan></tspan></text>
 <text class="TextShape"><tspan class="TextParagraph" font-family="Liberation Sans, sans-serif" font-size="353px" font-weight="400"><tspan class="TextPosition" x="4935" y="7759"><tspan fill="rgb(0,0,0)" stroke="none">5</tspan></tspan></tspan></text>
 <text class="TextShape"><tspan class="TextParagraph" font-family="Liberation Sans, sans-serif" font-size="353px" font-weight="400"><tspan class="TextPosition" x="5678" y="7759"><tspan fill="rgb(0,0,0)" stroke="none">6</tspan></tspan></tspan></text>
 <text class="TextShape"><tspan class="TextParagraph" font-family="Liberation Sans, sans-serif" font-size="353px" font-weight="400"><tspan class="TextPosition" x="6421" y="7759"><tspan fill="rgb(0,0,0)" stroke="none">7</tspan></tspan></tspan></text>
 <text class="TextShape"><tspan class="TextParagraph" font-family="Liberation Sans, sans-serif" font-size="353px" font-weight="400"><tspan class="TextPosition" x="7164" y="7759"><tspan fill="rgb(0,0,0)" stroke="none">8</tspan></tspan></tspan></text>
 <text class="TextShape"><tspan class="TextParagraph" font-family="Liberation Sans, sans-serif" font-size="353px" font-weight="400"><tspan class="TextPosition" x="7906" y="7759"><tspan fill="rgb(0,0,0)" stroke="none">9</tspan></tspan></tspan></text>
 <text class="TextShape"><tspan class="TextParagraph" font-family="Liberation Sans, sans-serif" font-size="353px" font-weight="400"><tspan class="TextPosition" x="8557" y="7759"><tspan fill="rgb(0,0,0)" stroke="none">10</tspan></tspan></tspan></text>
 <text class="TextShape"><tspan class="TextParagraph" font-family="Liberation Sans, sans-serif" font-size="353px" font-weight="400"><tspan class="TextPosition" x="9300" y="7759"><tspan fill="rgb(0,0,0)" stroke="none">11</tspan></tspan></tspan></text>
 <text class="TextShape"><tspan class="TextParagraph" font-family="Liberation Sans, sans-serif" font-size="353px" font-weight="400"><tspan class="TextPosition" x="10042" y="7759"><tspan fill="rgb(0,0,0)" stroke="none">12</tspan></tspan></tspan></text>
 <text class="TextShape"><tspan class="TextParagraph" font-family="Liberation Sans, sans-serif" font-size="353px" font-weight="400"><tspan class="TextPosition" x="10785" y="7759"><tspan fill="rgb(0,0,0)" stroke="none">13</tspan></tspan></tspan></text>
 <text class="TextShape"><tspan class="TextParagraph" font-family="Liberation Sans, sans-serif" font-size="353px" font-weight="400"><tspan class="TextPosition" x="11528" y="7759"><tspan fill="rgb(0,0,0)" stroke="none">14</tspan></tspan></tspan></text>
 <text class="TextShape"><tspan class="TextParagraph" font-family="Liberation Sans, sans-serif" font-size="353px" font-weight="400"><tspan class="TextPosition" x="12271" y="7759"><tspan fill="rgb(0,0,0)" stroke="none">15</tspan></tspan></tspan></text>
 <text class="TextShape"><tspan class="TextParagraph" font-family="Liberation Sans, sans-serif" font-size="353px" font-weight="400"><tspan class="TextPosition" x="1332" y="7312"><tspan fill="rgb(0,0,0)" stroke="none">0.5</tspan></tspan></tspan></text>
 <text class="TextShape"><tspan class="TextParagraph" font-family="Liberation Sans, sans-serif" font-size="353px" font-weight="400"><tspan class="TextPosition" x="1332" y="6358"><tspan fill="rgb(0,0,0)" stroke="none">0.6</tspan></tspan></tspan></text>
 <text class="TextShape"><tspan class="TextParagraph" font-family="Liberation Sans, sans-serif" font-size="353px" font-weight="400"><tspan class="TextPosition" x="1332" y="5405"><tspan fill="rgb(0,0,0)" stroke="none">0.7</tspan></tspan></tspan></text>
 <text class="TextShape"><tspan class="TextParagraph" font-family="Liberation Sans, sans-serif" font-size="353px" font-weight="400"><tspan class="TextPosition" x="1332" y="4452"><tspan fill="rgb(0,0,0)" stroke="none">0.8</tspan></tspan></tspan></text>
 <text class="TextShape"><tspan class="TextParagraph" font-family="Liberation Sans, sans-serif" font-size="353px" font-weight="400"><tspan class="TextPosition" x="1332" y="3499"><tspan fill="rgb(0,0,0)" stroke="none">0.9</tspan></tspan></tspan></text>
 <text class="TextShape"><tspan class="TextParagraph" font-family="Liberation Sans, sans-serif" font-size="353px" font-weight="400"><tspan class="TextPosition" x="1623" y="2546"><tspan fill="rgb(0,0,0)" stroke="none">1</tspan></tspan></tspan></text>
 <text class="TextShape"><tspan class="TextParagraph" font-family="Liberation Sans, sans-serif" font-size="353px" font-weight="400"><tspan class="TextPosition" x="1332" y="1593"><tspan fill="rgb(0,0,0)" stroke="none">1.1</tspan></tspan></tspan></text>
 <text class="TextShape"><tspan class="TextParagraph" font-family="Liberation Sans, sans-serif" font-size="459px" font-weight="400"><tspan class="TextPosition" x="4706" y="851"><tspan fill="rgb(0,0,0)" stroke="none">Score v Increasing Max Features</tspan></tspan></tspan></text>
 <path fill="none" stroke="rgb(0,69,134)" stroke-width="80" stroke-linejoin="round" d="M 13078,4250 L 13878,4250"/>
 <path fill="rgb(0,69,134)" stroke="none" d="M 13372,4145 L 13372,4356 13583,4356 13583,4145 13372,4145 Z"/>
 <path fill="none" stroke="rgb(0,69,134)" stroke-linejoin="round" d="M 13372,4145 L 13372,4356 13583,4356 13583,4145 13372,4145 Z"/>
 <path fill="none" stroke="rgb(255,66,14)" stroke-width="80" stroke-linejoin="round" d="M 13078,4747 L 13878,4747"/>
 <path fill="rgb(255,66,14)" stroke="none" d="M 13372,4747 L 13478,4853 13583,4747 13478,4642 13372,4747 Z"/>
 <path fill="none" stroke="rgb(255,66,14)" stroke-linejoin="round" d="M 13372,4747 L 13478,4853 13583,4747 13478,4642 13372,4747 Z"/>
 <text class="TextShape"><tspan class="TextParagraph" font-family="Liberation Sans, sans-serif" font-size="353px" font-weight="400"><tspan class="TextPosition" x="13978" y="4370"><tspan fill="rgb(0,0,0)" stroke="none">score</tspan></tspan></tspan></text>
 <text class="TextShape"><tspan class="TextParagraph" font-family="Liberation Sans, sans-serif" font-size="353px" font-weight="400"><tspan class="TextPosition" x="13978" y="4867"><tspan fill="rgb(0,0,0)" stroke="none">train_score</tspan></tspan></tspan></text>
 <text class="TextShape"><tspan class="TextParagraph" font-family="Liberation Sans, sans-serif" font-size="318px" font-weight="400"><tspan class="TextPosition" x="4698" y="8405"><tspan fill="rgb(0,0,0)" stroke="none">Run in increasing Max Features</tspan></tspan></tspan></text>
 <text class="TextShape" transform="translate(837,4980) rotate(-90) translate(-837,-4980)"><tspan class="TextParagraph" font-family="Liberation Sans, sans-serif" font-size="318px" font-weight="400"><tspan class="TextPosition" x="837" y="4980"><tspan fill="rgb(0,0,0)" stroke="none">Score</tspan></tspan></tspan></text>
</svg>