<?xml version="1.0" encoding="UTF-8"?>
<!DOCTYPE svg PUBLIC "-//W3C//DTD SVG 1.1//EN" "http://www.w3.org/Graphics/SVG/1.1/DTD/svg11.dtd">
<svg width="160mm" height="90mm" viewBox="0 0 16000 9000" version="1.1" xmlns="http://www.w3.org/2000/svg" stroke-width="28.222" stroke-linejoin="round" xml:space="preserve">
 <path fill="rgb(255,255,255)" stroke="none" d="M 8000,8999 L 0,8999 0,0 15999,0 15999,8999 8000,8999 Z"/>
 <path fill="none" stroke="rgb(179,179,179)" stroke-linejoin="round" d="M 7257,7192 L 2058,7192 2058,1474 12455,1474 12455,7192 7257,7192 Z"/>
 <path fill="none" stroke="rgb(179,179,179)" stroke-linejoin="round" d="M 12455,7191 L 2058,7191"/>
 <path fill="none" stroke="rgb(179,179,179)" stroke-linejoin="round" d="M 12455,6237 L 2058,6237"/>
 <path fill="none" stroke="rgb(179,179,179)" stroke-linejoin="round" d="M 12455,5284 L 2058,5284"/>
 <path fill="none" stroke="rgb(179,179,179)" stroke-linejoin="round" d="M 12455,4332 L 2058,4332"/>
 <path fill="none" stroke="rgb(179,179,179)" stroke-linejoin="round" d="M 12455,3379 L 2058,3379"/>
 <path fill="none" stroke="rgb(179,179,179)" stroke-linejoin="round" d="M 12455,2426 L 2058,2426"/>
 <path fill="none" stroke="rgb(179,179,179)" stroke-linejoin="round" d="M 12455,1473 L 2058,1473"/>
 <path fill="none" stroke="rgb(179,179,179)" stroke-linejoin="round" d="M 2058,7341 L 2058,7191"/>
 <path fill="none" stroke="rgb(179,179,179)" stroke-linejoin="round" d="M 2058,7341 L 2058,7191"/>
 <path fill="none" stroke="rgb(179,179,179)" stroke-linejoin="round" d="M 2800,7341 L 2800,7191"/>
 <path fill="none" stroke="rgb(179,179,179)" stroke-linejoin="round" d="M 2800,7341 L 2800,7191"/>
 <path fill="none" stroke="rgb(179,179,179)" stroke-linejoin="round" d="M 3543,7341 L 3543,7191"/>
 <path fill="none" stroke="rgb(179,179,179)" stroke-linejoin="round" d="M 3543,7341 L 3543,7191"/>
 <path fill="none" stroke="rgb(179,179,179)" stroke-linejoin="round" d="M 4286,7341 L 4286,7191"/>
 <path fill="none" stroke="rgb(179,179,179)" stroke-linejoin="round" d="M 4286,7341 L 4286,7191"/>
 <path fill="none" stroke="rgb(179,179,179)" stroke-linejoin="round" d="M 5028,7341 L 5028,7191"/>
 <path fill="none" stroke="rgb(179,179,179)" stroke-linejoin="round" d="M 5028,7341 L 5028,7191"/>
 <path fill="none" stroke="rgb(179,179,179)" stroke-linejoin="round" d="M 5771,7341 L 5771,7191"/>
 <path fill="none" stroke="rgb(179,179,179)" stroke-linejoin="round" d="M 5771,7341 L 5771,7191"/>
 <path fill="none" stroke="rgb(179,179,179)" stroke-linejoin="round" d="M 6514,7341 L 6514,7191"/>
 <path fill="none" stroke="rgb(179,179,179)" stroke-linejoin="round" d="M 6514,7341 L 6514,7191"/>
 <path fill="none" stroke="rgb(179,179,179)" stroke-linejoin="round" d="M 7257,7341 L 7257,7191"/>
 <path fill="none" stroke="rgb(179,179,179)" stroke-linejoin="round" d="M 7257,7341 L 7257,7191"/>
 <path fill="none" stroke="rgb(179,179,179)" stroke-linejoin="round" d="M 7999,7341 L 7999,7191"/>
 <path fill="none" stroke="rgb(179,179,179)" stroke-linejoin="round" d="M 7999,7341 L 7999,7191"/>
 <path fill="none" stroke="rgb(179,179,179)" stroke-linejoin="round" d="M 8741,7341 L 8741,7191"/>
 <path fill="none" stroke="rgb(179,179,179)" stroke-linejoin="round" d="M 8741,7341 L 8741,7191"/>
 <path fill="none" stroke="rgb(179,179,179)" stroke-linejoin="round" d="M 9484,7341 L 9484,7191"/>
 <path fill="none" stroke="rgb(179,179,179)" stroke-linejoin="round" d="M 9484,7341 L 9484,7191"/>
 <path fill="none" stroke="rgb(179,179,179)" stroke-linejoin="round" d="M 10226,7341 L 10226,7191"/>
 <path fill="none" stroke="rgb(179,179,179)" stroke-linejoin="round" d="M 10226,7341 L 10226,7191"/>
 <path fill="none" stroke="rgb(179,179,179)" stroke-linejoin="round" d="M 10969,7341 L 10969,7191"/>
 <path fill="none" stroke="rgb(179,179,179)" stroke-linejoin="round" d="M 10969,7341 L 10969,7191"/>
 <path fill="none" stroke="rgb(179,179,179)" stroke-linejoin="round" d="M 11712,7341 L 11712,7191"/>
 <path fill="none" stroke="rgb(179,179,179)" stroke-linejoin="round" d="M 11712,7341 L 11712,7191"/>
 <path fill="none" stroke="rgb(179,179,179)" stroke-linejoin="round" d="M 12455,7341 L 12455,7191"/>
 <path fill="none" stroke="rgb(179,179,179)" stroke-linejoin="round" d="M 12455,7341 L 12455,7191"/>
 <path fill="none" stroke="rgb(179,179,179)" stroke-linejoin="round" d="M 2058,7191 L 12455,7191"/>
 <path fill="none" stroke="rgb(179,179,179)" stroke-linejoin="round" d="M 1908,7191 L 2058,7191"/>
 <path fill="none" stroke="rgb(179,179,179)" stroke-linejoin="round" d="M 1908,7191 L 2058,7191"/>
 <path fill="none" stroke="rgb(179,179,179)" stroke-linejoin="round" d="M 1908,6237 L 2058,6237"/>
 <path fill="none" stroke="rgb(179,179,179)" stroke-linejoin="round" d="M 1908,6237 L 2058,6237"/>
 <path fill="none" stroke="rgb(179,179,179)" stroke-linejoin="round" d="M 1908,5284 L 2058,5284"/>
 <path fill="none" stroke="rgb(179,179,179)" stroke-linejoin="round" d="M 1908,5284 L 2058,5284"/>
 <path fill="none" stroke="rgb(179,179,179)" stroke-linejoin="round" d="M 1908,4332 L 2058,4332"/>
 <path fill="none" stroke="rgb(179,179,179)" stroke-linejoin="round" d="M 1908,4332 L 2058,4332"/>
 <path fill="none" stroke="rgb(179,179,179)" stroke-linejoin="round" d="M 1908,3379 L 2058,3379"/>
 <path fill="none" stroke="rgb(179,179,179)" stroke-linejoin="round" d="M 1908,3379 L 2058,3379"/>
 <path fill="none" stroke="rgb(179,179,179)" stroke-linejoin="round" d="M 1908,2426 L 2058,2426"/>
 <path fill="none" stroke="rgb(179,179,179)" stroke-linejoin="round" d="M 1908,2426 L 2058,2426"/>
 <path fill="none" stroke="rgb(179,179,179)" stroke-linejoin="round" d="M 1908,1473 L 2058,1473"/>
 <path fill="none" stroke="rgb(179,179,179)" stroke-linejoin="round" d="M 1908,1473 L 2058,1473"/>
 <path fill="none" stroke="rgb(179,179,179)" stroke-linejoin="round" d="M 2058,7191 L 2058,1473"/>
 <path fill="none" stroke="rgb(0,69,134)" stroke-width="80" stroke-linejoin="round" d="M 2058,6274 L 2800,4259 3543,3734 4286,2976 5028,3173 5771,3342 6514,3360 7257,3159 7999,2976 8741,2976 9484,2986 10226,3159 10969,3360 11712,3342 12455,3360"/>
 <path fill="rgb(0,69,134)" stroke="none" d="M 1933,6149 L 1933,6399 2183,6399 2183,6149 1933,6149 Z"/>
 <path fill="none" stroke="rgb(0,69,134)" stroke-linejoin="round" d="M 1933,6149 L 1933,6399 2183,6399 2183,6149 1933,6149 Z"/>
 <path fill="rgb(0,69,134)" stroke="none" d="M 2675,4134 L 2675,4384 2925,4384 2925,4134 2675,4134 Z"/>
 <path fill="none" stroke="rgb(0,69,134)" stroke-linejoin="round" d="M 2675,4134 L 2675,4384 2925,4384 2925,4134 2675,4134 Z"/>
 <path fill="rgb(0,69,134)" stroke="none" d="M 3418,3609 L 3418,3859 3668,3859 3668,3609 3418,3609 Z"/>
 <path fill="none" stroke="rgb(0,69,134)" stroke-linejoin="round" d="M 3418,3609 L 3418,3859 3668,3859 3668,3609 3418,3609 Z"/>
 <path fill="rgb(0,69,134)" stroke="none" d="M 4161,2851 L 4161,3101 4411,3101 4411,2851 4161,2851 Z"/>
 <path fill="none" stroke="rgb(0,69,134)" stroke-linejoin="round" d="M 4161,2851 L 4161,3101 4411,3101 4411,2851 4161,2851 Z"/>
 <path fill="rgb(0,69,134)" stroke="none" d="M 4903,3048 L 4903,3298 5153,3298 5153,3048 4903,3048 Z"/>
 <path fill="none" stroke="rgb(0,69,134)" stroke-linejoin="round" d="M 4903,3048 L 4903,3298 5153,3298 5153,3048 4903,3048 Z"/>
 <path fill="rgb(0,69,134)" stroke="none" d="M 5646,3217 L 5646,3467 5896,3467 5896,3217 5646,3217 Z"/>
 <path fill="none" stroke="rgb(0,69,134)" stroke-linejoin="round" d="M 5646,3217 L 5646,3467 5896,3467 5896,3217 5646,3217 Z"/>
 <path fill="rgb(0,69,134)" stroke="none" d="M 6389,3235 L 6389,3485 6639,3485 6639,3235 6389,3235 Z"/>
 <path fill="none" stroke="rgb(0,69,134)" stroke-linejoin="round" d="M 6389,3235 L 6389,3485 6639,3485 6639,3235 6389,3235 Z"/>
 <path fill="rgb(0,69,134)" stroke="none" d="M 7132,3034 L 7132,3284 7382,3284 7382,3034 7132,3034 Z"/>
 <path fill="none" stroke="rgb(0,69,134)" stroke-linejoin="round" d="M 7132,3034 L 7132,3284 7382,3284 7382,3034 7132,3034 Z"/>
 <path fill="rgb(0,69,134)" stroke="none" d="M 7874,2851 L 7874,3101 8123,3101 8123,2851 7874,2851 Z"/>
 <path fill="none" stroke="rgb(0,69,134)" stroke-linejoin="round" d="M 7874,2851 L 7874,3101 8123,3101 8123,2851 7874,2851 Z"/>
 <path fill="rgb(0,69,134)" stroke="none" d="M 8616,2851 L 8616,3101 8866,3101 8866,2851 8616,2851 Z"/>
 <path fill="none" stroke="rgb(0,69,134)" stroke-linejoin="round" d="M 8616,2851 L 8616,3101 8866,3101 8866,2851 8616,2851 Z"/>
 <path fill="rgb(0,69,134)" stroke="none" d="M 9359,2861 L 9359,3111 9609,3111 9609,2861 9359,2861 Z"/>
 <path fill="none" stroke="rgb(0,69,134)" stroke-linejoin="round" d="M 9359,2861 L 9359,3111 9609,3111 9609,2861 9359,2861 Z"/>
 <path fill="rgb(0,69,134)" stroke="none" d="M 10101,3034 L 10101,3284 10351,3284 10351,3034 10101,3034 Z"/>
 <path fill="none" stroke="rgb(0,69,134)" stroke-linejoin="round" d="M 10101,3034 L 10101,3284 10351,3284 10351,3034 10101,3034 Z"/>
 <path fill="rgb(0,69,134)" stroke="none" d="M 10844,3235 L 10844,3485 11094,3485 11094,3235 10844,3235 Z"/>
 <path fill="none" stroke="rgb(0,69,134)" stroke-linejoin="round" d="M 10844,3235 L 10844,3485 11094,3485 11094,3235 10844,3235 Z"/>
 <path fill="rgb(0,69,134)" stroke="none" d="M 11587,3217 L 11587,3467 11837,3467 11837,3217 11587,3217 Z"/>
 <path fill="none" stroke="rgb(0,69,134)" stroke-linejoin="round" d="M 11587,3217 L 11587,3467 11837,3467 11837,3217 11587,3217 Z"/>
 <path fill="rgb(0,69,134)" stroke="none" d="M 12330,3235 L 12330,3485 12580,3485 12580,3235 12330,3235 Z"/>
 <path fill="none" stroke="rgb(0,69,134)" stroke-linejoin="round" d="M 12330,3235 L 12330,3485 12580,3485 12580,3235 12330,3235 Z"/>
 <path fill="none" stroke="rgb(255,66,14)" stroke-width="80" stroke-linejoin="round" d="M 2058,5781 L 2800,4083 3543,3129 4286,2633 5028,2508 5771,2550 6514,2446 7257,2446 7999,2446 8741,2446 9484,2446 10226,2446 10969,2446 11712,2446 12455,2446"/>
 <path fill="rgb(255,66,14)" stroke="none" d="M 1933,5781 L 2058,5906 2183,5781 2058,5656 1933,5781 Z"/>
 <path fill="none" stroke="rgb(255,66,14)" stroke-linejoin="round" d="M 1933,5781 L 2058,5906 2183,5781 2058,5656 1933,5781 Z"/>
 <path fill="rgb(255,66,14)" stroke="none" d="M 2675,4083 L 2800,4208 2925,4083 2800,3958 2675,4083 Z"/>
 <path fill="none" stroke="rgb(255,66,14)" stroke-linejoin="round" d="M 2675,4083 L 2800,4208 2925,4083 2800,3958 2675,4083 Z"/>
 <path fill="rgb(255,66,14)" stroke="none" d="M 3418,3129 L 3543,3254 3668,3129 3543,3004 3418,3129 Z"/>
 <path fill="none" stroke="rgb(255,66,14)" stroke-linejoin="round" d="M 3418,3129 L 3543,3254 3668,3129 3543,3004 3418,3129 Z"/>
 <path fill="rgb(255,66,14)" stroke="none" d="M 4161,2633 L 4286,2758 4411,2633 4286,2508 4161,2633 Z"/>
 <path fill="none" stroke="rgb(255,66,14)" stroke-linejoin="round" d="M 4161,2633 L 4286,2758 4411,2633 4286,2508 4161,2633 Z"/>
 <path fill="rgb(255,66,14)" stroke="none" d="M 4903,2508 L 5028,2633 5153,2508 5028,2383 4903,2508 Z"/>
 <path fill="none" stroke="rgb(255,66,14)" stroke-linejoin="round" d="M 4903,2508 L 5028,2633 5153,2508 5028,2383 4903,2508 Z"/>
 <path fill="rgb(255,66,14)" stroke="none" d="M 5646,2550 L 5771,2675 5896,2550 5771,2425 5646,2550 Z"/>
 <path fill="none" stroke="rgb(255,66,14)" stroke-linejoin="round" d="M 5646,2550 L 5771,2675 5896,2550 5771,2425 5646,2550 Z"/>
 <path fill="rgb(255,66,14)" stroke="none" d="M 6389,2446 L 6514,2571 6639,2446 6514,2321 6389,2446 Z"/>
 <path fill="none" stroke="rgb(255,66,14)" stroke-linejoin="round" d="M 6389,2446 L 6514,2571 6639,2446 6514,2321 6389,2446 Z"/>
 <path fill="rgb(255,66,14)" stroke="none" d="M 7132,2446 L 7257,2571 7382,2446 7257,2321 7132,2446 Z"/>
 <path fill="none" stroke="rgb(255,66,14)" stroke-linejoin="round" d="M 7132,2446 L 7257,2571 7382,2446 7257,2321 7132,2446 Z"/>
 <path fill="rgb(255,66,14)" stroke="none" d="M 7874,2446 L 7999,2571 8123,2446 7999,2321 7874,2446 Z"/>
 <path fill="none" stroke="rgb(255,66,14)" stroke-linejoin="round" d="M 7874,2446 L 7999,2571 8123,2446 7999,2321 7874,2446 Z"/>
 <path fill="rgb(255,66,14)" stroke="none" d="M 8616,2446 L 8741,2571 8866,2446 8741,2321 8616,2446 Z"/>
 <path fill="none" stroke="rgb(255,66,14)" stroke-linejoin="round" d="M 8616,2446 L 8741,2571 8866,2446 8741,2321 8616,2446 Z"/>
 <path fill="rgb(255,66,14)" stroke="none" d="M 9359,2446 L 9484,2571 9609,2446 9484,2321 9359,2446 Z"/>
 <path fill="none" stroke="rgb(255,66,14)" stroke-linejoin="round" d="M 9359,2446 L 9484,2571 9609,2446 9484,2321 9359,2446 Z"/>
 <path fill="rgb(255,66,14)" stroke="none" d="M 10101,2446 L 10226,2571 10351,2446 10226,2321 10101,2446 Z"/>
 <path fill="none" stroke="rgb(255,66,14)" stroke-linejoin="round" d="M 10101,2446 L 10226,2571 10351,2446 10226,2321 10101,2446 Z"/>
 <path fill="rgb(255,66,14)" stroke="none" d="M 10844,2446 L 10969,2571 11094,2446 10969,2321 10844,2446 Z"/>
 <path fill="none" stroke="rgb(255,66,14)" stroke-linejoin="round" d="M 10844,2446 L 10969,2571 11094,2446 10969,2321 10844,2446 Z"/>
 <path fill="rgb(255,66,14)" stroke="none" d="M 11587,2446 L 11712,2571 11837,2446 11712,2321 11587,2446 Z"/>
 <path fill="none" stroke="rgb(255,66,14)" stroke-linejoin="round" d="M 11587,2446 L 11712,2571 11837,2446 11712,2321 11587,2446 Z"/>
 <path fill="rgb(255,66,14)" stroke="none" d="M 12330,2446 L 12455,2571 12580,2446 12455,2321 12330,2446 Z"/>
 <path fill="none" stroke="rgb(255,66,14)" stroke-linejoin="round" d="M 12330,2446 L 12455,2571 12580,2446 12455,2321 12330,2446 Z"/>
 <text class="TextShape"><tspan class="TextParagraph" font-family="Liberation Sans, sans-serif" font-size="353px" font-weight="400"><tspan class="TextPosition" x="1965" y="7759"><tspan fill="rgb(0,0,0)" stroke="none">1</tspan></tspan></tspan></text>
 <text class="TextShape"><tspan class="TextParagraph" font-family="Liberation Sans, sans-serif" font-size="353px" font-weight="400"><tspan class="TextPosition" x="2707" y="7759"><tspan fill="rgb(0,0,0)" stroke="none">2</tspan></tspan></tspan></text>
 <text class="TextShape"><tspan class="TextParagraph" font-family="Liberation Sans, sans-serif" font-size="353px" font-weight="400"><tspan class="TextPosition" x="3450" y="7759"><tspan fill="rgb(0,0,0)" stroke="none">3</tspan></tspan></tspan></text>
 <text class="TextShape"><tspan class="TextParagraph" font-family="Liberation Sans, sans-serif" font-size="353px" font-weight="400"><tspan class="TextPosition" x="4193" y="7759"><tspan fill="rgb(0,0,0)" stroke="none">4</tspan></tspan></tspan></text>
 <text class="TextShape"><tspan class="TextParagraph" font-family="Liberation Sans, sans-serif" font-size="353px" font-weight="400"><tspan class="TextPosition" x="4935" y="7759"><tspan fill="rgb(0,0,0)" stroke="none">5</tspan></tspan></tspan></text>
 <text class="TextShape"><tspan class="TextParagraph" font-family="Liberation Sans, sans-serif" font-size="353px" font-weight="400"><tspan class="TextPosition" x="5678" y="7759"><tspan fill="rgb(0,0,0)" stroke="none">6</tspan></tspan></tspan></text>
 <text class="TextShape"><tspan class="TextParagraph" font-family="Liberation Sans, sans-serif" font-size="353px" font-weight="400"><tspan class="TextPosition" x="6421" y="7759"><tspan fill="rgb(0,0,0)" stroke="none">7</tspan></tspan></tspan></text>
 <text class="TextShape"><tspan class="TextParagraph" font-family="Liberation Sans, sans-serif" font-size="353px" font-weight="400"><tspan class="TextPosition" x="7164" y="7759"><tspan fill="rgb(0,0,0)" stroke="none">8</tspan></tspan></tspan></text>
 <text class="TextShape"><tspan class="TextParagraph" font-family="Liberation Sans, sans-serif" font-size="353px" font-weight="400"><tspan class="TextPosition" x="7906" y="7759"><tspan fill="rgb(0,0,0)" stroke="none">9</tspan></tspan></tspan></text>
 <text class="TextShape"><tspan class="TextParagraph" font-family="Liberation Sans, sans-serif" font-size="353px" font-weight="400"><tspan class="TextPosition" x="8557" y="7759"><tspan fill="rgb(0,0,0)" stroke="none">10</tspan></tspan></tspan></text>
 <text class="TextShape"><tspan class="TextParagraph" font-family="Liberation Sans, sans-serif" font-size="353px" font-weight="400"><tspan class="TextPosition" x="9300" y="7759"><tspan fill="rgb(0,0,0)" stroke="none">11</tspan></tspan></tspan></text>
 <text class="TextShape"><tspan class="TextParagraph" font-family="Liberation Sans, sans-serif" font-size="353px" font-weight="400"><tspan class="TextPosition" x="10042" y="7759"><tspan fill="rgb(0,0,0)" stroke="none">12</tspan></tspan></tspan></text>
 <text class="TextShape"><tspan class="TextParagraph" font-family="Liberation Sans, sans-serif" font-size="353px" font-weight="400"><tspan class="TextPosition" x="10785" y="7759"><tspan fill="rgb(0,0,0)" stroke="none">13</tspan></tspan></tspan></text>
 <text class="TextShape"><tspan class="TextParagraph" font-family="Liberation Sans, sans-serif" font-size="353px" font-weight="400"><tspan class="TextPosition" x="11528" y="7759"><tspan fill="rgb(0,0,0)" stroke="none">14</tspan></tspan></tspan></text>
 <text class="TextShape"><tspan class="TextParagraph" font-family="Liberation Sans, sans-serif" font-size="353px" font-weight="400"><tspan class="TextPosition" x="12271" y="7759"><tspan fill="rgb(0,0,0)" stroke="none">15</tspan></tspan></tspan></text>
 <text class="TextShape"><tspan class="TextParagraph" font-family="Liberation Sans, sans-serif" font-size="353px" font-weight="400"><tspan class="TextPosition" x="1332" y="7312"><tspan fill="rgb(0,0,0)" stroke="none">0.5</tspan></tspan></tspan></text>
 <text class="TextShape"><tspan class="TextParagraph" font-family="Liberation Sans, sans-serif" font-size="353px" font-weight="400"><tspan class="TextPosition" x="1332" y="6358"><tspan fill="rgb(0,0,0)" stroke="none">0.6</tspan></tspan></tspan></text>
 <text class="TextShape"><tspan class="TextParagraph" font-family="Liberation Sans, sans-serif" font-size="353px" font-weight="400"><tspan class="TextPosition" x="1332" y="5405"><tspan fill="rgb(0,0,0)" stroke="none">0.7</tspan></tspan></tspan></text>
 <text class="TextShape"><tspan class="TextParagraph" font-family="Liberation Sans, sans-serif" font-size="353px" font-weight="400"><tspan class="TextPosition" x="1332" y="4452"><tspan fill="rgb(0,0,0)" stroke="none">0.8</tspan></tspan></tspan></text>
 <text class="TextShape"><tspan class="TextParagraph" font-family="Liberation Sans, sans-serif" font-size="353px" font-weight="400"><tspan class="TextPosition" x="1332" y="3499"><tspan fill="rgb(0,0,0)" stroke="none">0.9</tspan></tspan></tspan></text>
 <text class="TextShape"><tspan class="TextParagraph" font-family="Liberation Sans, sans-serif" font-size="353px" font-weight="400"><tspan class="TextPosition" x="1623" y="2546"><tspan fill="rgb(0,0,0)" stroke="none">1</tspan></tspan></tspan></text>
 <text class="TextShape"><tspan class="TextParagraph" font-family="Liberation Sans, sans-serif" font-size="353px" font-weight="400"><tspan class="TextPosition" x="1332" y="1593"><tspan fill="rgb(0,0,0)" stroke="none">1.1</tspan></tspan></tspan></text>
 <text class="TextShape"><tspan class="TextParagraph" font-family="Liberation Sans, sans-serif" font-size="459px" font-weight="400"><tspan class="TextPosition" x="4706" y="851"><tspan fill="rgb(0,0,0)" stroke="none">Score v Increasing Max Features</tspan></tspan></tspan></text>
 <path fill="none" stroke="rgb(0,69,134)" stroke-width="80" stroke-linejoin="round" d="M 13078,4250 L 13878,4250"/>
 <path fill="rgb(0,69,134)" stroke="none" d="M 13372,4145 L 13372,4356 13583,4356 13583,4145 13372,4145 Z"/>
 <path fill="none" stroke="rgb(0,69,134)" stroke-linejoin="round" d="M 13372,4145 L 13372,4356 13583,4356 13583,4145 13372,4145 Z"/>
 <path fill="none" stroke="rgb(255,66,14)" stroke-width="80" stroke-linejoin="round" d="M 13078,4747 L 13878,4747"/>
 <path fill="rgb(255,66,14)" stroke="none" d="M 13372,4747 L 13478,4853 13583,4747 13478,4642 13372,4747 Z"/>
 <path fill="none" stroke="rgb(255,66,14)" stroke-linejoin="round" d="M 13372,4747 L 13478,4853 13583,4747 13478,4642 13372,4747 Z"/>
 <text class="TextShape"><tspan class="TextParagraph" font-family="Liberation Sans, sans-serif" font-size="353px" font-weight="400"><tspan class="TextPosition" x="13978" y="4370"><tspan fill="rgb(0,0,0)" stroke="none">score</tspan></tspan></tspan></text>
 <text class="TextShape"><tspan class="TextParagraph" font-family="Liberation Sans, sans-serif" font-size="353px" font-weight="400"><tspan class="TextPosition" x="13978" y="4867"><tspan fill="rgb(0,0,0)" stroke="none">train_score</tspan></tspan></tspan></text>
 <text class="TextShape"><tspan class="TextParagraph" font-family="Liberation Sans, sans-serif" font-size="318px" font-weight="400"><tspan class="TextPosition" x="4897" y="8405"><tspan fill="rgb(0,0,0)" stroke="none">Run in increasing Max Depth</tspan></tspan></tspan></text>
 <text class="TextShape" transform="translate(837,4980) rotate(-90) translate(-837,-4980)"><tspan class="TextParagraph" font-family="Liberation Sans, sans-serif" font-size="318px" font-weight="400"><tspan class="TextPosition" x="837" y="4980"><tspan fill="rgb(0,0,0)" stroke="none">Score</tspan></tspan></tspan></text>
</svg>