<?xml version="1.0" encoding="UTF-8"?>
<!DOCTYPE svg PUBLIC "-//W3C//DTD SVG 1.1//EN" "http://www.w3.org/Graphics/SVG/1.1/DTD/svg11.dtd">
<svg width="160mm" height="90mm" viewBox="0 0 16000 9000" version="1.1" xmlns="http://www.w3.org/2000/svg" stroke-width="28.222" stroke-linejoin="round" xml:space="preserve">
 <path fill="rgb(255,255,255)" stroke="none" d="M 8000,8999 L 0,8999 0,0 15999,0 15999,8999 8000,8999 Z"/>
 <path fill="none" stroke="rgb(179,179,179)" stroke-linejoin="round" d="M 6913,7191 L 2058,7191 2058,1474 11767,1474 11767,7191 6913,7191 Z"/>
 <path fill="none" stroke="rgb(179,179,179)" stroke-linejoin="round" d="M 11767,7190 L 2058,7190"/>
 <path fill="none" stroke="rgb(179,179,179)" stroke-linejoin="round" d="M 11767,6618 L 2058,6618"/>
 <path fill="none" stroke="rgb(179,179,179)" stroke-linejoin="round" d="M 11767,6046 L 2058,6046"/>
 <path fill="none" stroke="rgb(179,179,179)" stroke-linejoin="round" d="M 11767,5474 L 2058,5474"/>
 <path fill="none" stroke="rgb(179,179,179)" stroke-linejoin="round" d="M 11767,4902 L 2058,4902"/>
 <path fill="none" stroke="rgb(179,179,179)" stroke-linejoin="round" d="M 11767,4332 L 2058,4332"/>
 <path fill="none" stroke="rgb(179,179,179)" stroke-linejoin="round" d="M 11767,3760 L 2058,3760"/>
 <path fill="none" stroke="rgb(179,179,179)" stroke-linejoin="round" d="M 11767,3188 L 2058,3188"/>
 <path fill="none" stroke="rgb(179,179,179)" stroke-linejoin="round" d="M 11767,2616 L 2058,2616"/>
 <path fill="none" stroke="rgb(179,179,179)" stroke-linejoin="round" d="M 11767,2044 L 2058,2044"/>
 <path fill="none" stroke="rgb(179,179,179)" stroke-linejoin="round" d="M 11767,1473 L 2058,1473"/>
 <path fill="none" stroke="rgb(179,179,179)" stroke-linejoin="round" d="M 2058,7340 L 2058,7190"/>
 <path fill="none" stroke="rgb(179,179,179)" stroke-linejoin="round" d="M 2058,7340 L 2058,7190"/>
 <path fill="none" stroke="rgb(179,179,179)" stroke-linejoin="round" d="M 3136,7340 L 3136,7190"/>
 <path fill="none" stroke="rgb(179,179,179)" stroke-linejoin="round" d="M 3136,7340 L 3136,7190"/>
 <path fill="none" stroke="rgb(179,179,179)" stroke-linejoin="round" d="M 4215,7340 L 4215,7190"/>
 <path fill="none" stroke="rgb(179,179,179)" stroke-linejoin="round" d="M 4215,7340 L 4215,7190"/>
 <path fill="none" stroke="rgb(179,179,179)" stroke-linejoin="round" d="M 5294,7340 L 5294,7190"/>
 <path fill="none" stroke="rgb(179,179,179)" stroke-linejoin="round" d="M 5294,7340 L 5294,7190"/>
 <path fill="none" stroke="rgb(179,179,179)" stroke-linejoin="round" d="M 6373,7340 L 6373,7190"/>
 <path fill="none" stroke="rgb(179,179,179)" stroke-linejoin="round" d="M 6373,7340 L 6373,7190"/>
 <path fill="none" stroke="rgb(179,179,179)" stroke-linejoin="round" d="M 7452,7340 L 7452,7190"/>
 <path fill="none" stroke="rgb(179,179,179)" stroke-linejoin="round" d="M 7452,7340 L 7452,7190"/>
 <path fill="none" stroke="rgb(179,179,179)" stroke-linejoin="round" d="M 8530,7340 L 8530,7190"/>
 <path fill="none" stroke="rgb(179,179,179)" stroke-linejoin="round" d="M 8530,7340 L 8530,7190"/>
 <path fill="none" stroke="rgb(179,179,179)" stroke-linejoin="round" d="M 9609,7340 L 9609,7190"/>
 <path fill="none" stroke="rgb(179,179,179)" stroke-linejoin="round" d="M 9609,7340 L 9609,7190"/>
 <path fill="none" stroke="rgb(179,179,179)" stroke-linejoin="round" d="M 10688,7340 L 10688,7190"/>
 <path fill="none" stroke="rgb(179,179,179)" stroke-linejoin="round" d="M 10688,7340 L 10688,7190"/>
 <path fill="none" stroke="rgb(179,179,179)" stroke-linejoin="round" d="M 11767,7340 L 11767,7190"/>
 <path fill="none" stroke="rgb(179,179,179)" stroke-linejoin="round" d="M 11767,7340 L 11767,7190"/>
 <path fill="none" stroke="rgb(179,179,179)" stroke-linejoin="round" d="M 2058,7190 L 11767,7190"/>
 <path fill="none" stroke="rgb(179,179,179)" stroke-linejoin="round" d="M 1908,7190 L 2058,7190"/>
 <path fill="none" stroke="rgb(179,179,179)" stroke-linejoin="round" d="M 1908,7190 L 2058,7190"/>
 <path fill="none" stroke="rgb(179,179,179)" stroke-linejoin="round" d="M 1908,6618 L 2058,6618"/>
 <path fill="none" stroke="rgb(179,179,179)" stroke-linejoin="round" d="M 1908,6618 L 2058,6618"/>
 <path fill="none" stroke="rgb(179,179,179)" stroke-linejoin="round" d="M 1908,6046 L 2058,6046"/>
 <path fill="none" stroke="rgb(179,179,179)" stroke-linejoin="round" d="M 1908,6046 L 2058,6046"/>
 <path fill="none" stroke="rgb(179,179,179)" stroke-linejoin="round" d="M 1908,5474 L 2058,5474"/>
 <path fill="none" stroke="rgb(179,179,179)" stroke-linejoin="round" d="M 1908,5474 L 2058,5474"/>
 <path fill="none" stroke="rgb(179,179,179)" stroke-linejoin="round" d="M 1908,4902 L 2058,4902"/>
 <path fill="none" stroke="rgb(179,179,179)" stroke-linejoin="round" d="M 1908,4902 L 2058,4902"/>
 <path fill="none" stroke="rgb(179,179,179)" stroke-linejoin="round" d="M 1908,4332 L 2058,4332"/>
 <path fill="none" stroke="rgb(179,179,179)" stroke-linejoin="round" d="M 1908,4332 L 2058,4332"/>
 <path fill="none" stroke="rgb(179,179,179)" stroke-linejoin="round" d="M 1908,3760 L 2058,3760"/>
 <path fill="none" stroke="rgb(179,179,179)" stroke-linejoin="round" d="M 1908,3760 L 2058,3760"/>
 <path fill="none" stroke="rgb(179,179,179)" stroke-linejoin="round" d="M 1908,3188 L 2058,3188"/>
 <path fill="none" stroke="rgb(179,179,179)" stroke-linejoin="round" d="M 1908,3188 L 2058,3188"/>
 <path fill="none" stroke="rgb(179,179,179)" stroke-linejoin="round" d="M 1908,2616 L 2058,2616"/>
 <path fill="none" stroke="rgb(179,179,179)" stroke-linejoin="round" d="M 1908,2616 L 2058,2616"/>
 <path fill="none" stroke="rgb(179,179,179)" stroke-linejoin="round" d="M 1908,2044 L 2058,2044"/>
 <path fill="none" stroke="rgb(179,179,179)" stroke-linejoin="round" d="M 1908,2044 L 2058,2044"/>
 <path fill="none" stroke="rgb(179,179,179)" stroke-linejoin="round" d="M 1908,1473 L 2058,1473"/>
 <path fill="none" stroke="rgb(179,179,179)" stroke-linejoin="round" d="M 1908,1473 L 2058,1473"/>
 <path fill="none" stroke="rgb(179,179,179)" stroke-linejoin="round" d="M 2058,7190 L 2058,1473"/>
 <path fill="none" stroke="rgb(255,66,14)" stroke-width="80" stroke-linejoin="round" d="M 2058,4598 L 3136,4422 4215,4587 5294,4594 6373,4472 7452,1973 8530,1967 9609,4455 10688,4339 11767,4378"/>
 <path fill="rgb(255,66,14)" stroke="none" d="M 1933,4598 L 2058,4723 2183,4598 2058,4474 1933,4598 Z"/>
 <path fill="none" stroke="rgb(255,66,14)" stroke-linejoin="round" d="M 1933,4598 L 2058,4723 2183,4598 2058,4474 1933,4598 Z"/>
 <path fill="rgb(255,66,14)" stroke="none" d="M 3011,4422 L 3136,4546 3261,4422 3136,4297 3011,4422 Z"/>
 <path fill="none" stroke="rgb(255,66,14)" stroke-linejoin="round" d="M 3011,4422 L 3136,4546 3261,4422 3136,4297 3011,4422 Z"/>
 <path fill="rgb(255,66,14)" stroke="none" d="M 4090,4587 L 4215,4712 4340,4587 4215,4463 4090,4587 Z"/>
 <path fill="none" stroke="rgb(255,66,14)" stroke-linejoin="round" d="M 4090,4587 L 4215,4712 4340,4587 4215,4463 4090,4587 Z"/>
 <path fill="rgb(255,66,14)" stroke="none" d="M 5169,4594 L 5294,4719 5419,4594 5294,4470 5169,4594 Z"/>
 <path fill="none" stroke="rgb(255,66,14)" stroke-linejoin="round" d="M 5169,4594 L 5294,4719 5419,4594 5294,4470 5169,4594 Z"/>
 <path fill="rgb(255,66,14)" stroke="none" d="M 6248,4472 L 6373,4596 6498,4472 6373,4347 6248,4472 Z"/>
 <path fill="none" stroke="rgb(255,66,14)" stroke-linejoin="round" d="M 6248,4472 L 6373,4596 6498,4472 6373,4347 6248,4472 Z"/>
 <path fill="rgb(255,66,14)" stroke="none" d="M 7327,1973 L 7452,2098 7577,1973 7452,1848 7327,1973 Z"/>
 <path fill="none" stroke="rgb(255,66,14)" stroke-linejoin="round" d="M 7327,1973 L 7452,2098 7577,1973 7452,1848 7327,1973 Z"/>
 <path fill="rgb(255,66,14)" stroke="none" d="M 8405,1967 L 8530,2092 8655,1967 8530,1842 8405,1967 Z"/>
 <path fill="none" stroke="rgb(255,66,14)" stroke-linejoin="round" d="M 8405,1967 L 8530,2092 8655,1967 8530,1842 8405,1967 Z"/>
 <path fill="rgb(255,66,14)" stroke="none" d="M 9484,4455 L 9609,4579 9734,4455 9609,4330 9484,4455 Z"/>
 <path fill="none" stroke="rgb(255,66,14)" stroke-linejoin="round" d="M 9484,4455 L 9609,4579 9734,4455 9609,4330 9484,4455 Z"/>
 <path fill="rgb(255,66,14)" stroke="none" d="M 10563,4339 L 10688,4464 10813,4339 10688,4214 10563,4339 Z"/>
 <path fill="none" stroke="rgb(255,66,14)" stroke-linejoin="round" d="M 10563,4339 L 10688,4464 10813,4339 10688,4214 10563,4339 Z"/>
 <path fill="rgb(255,66,14)" stroke="none" d="M 11642,4378 L 11767,4502 11892,4378 11767,4253 11642,4378 Z"/>
 <path fill="none" stroke="rgb(255,66,14)" stroke-linejoin="round" d="M 11642,4378 L 11767,4502 11892,4378 11767,4253 11642,4378 Z"/>
 <path fill="none" stroke="rgb(255,211,32)" stroke-width="80" stroke-linejoin="round" d="M 2058,4548 L 3136,4418 4215,4641 5294,4562 6373,4476 7452,2006 8530,2030 9609,4456 10688,4339 11767,4377"/>
 <path fill="rgb(255,211,32)" stroke="none" d="M 1933,4424 L 2058,4673 2183,4424 1933,4424 Z"/>
 <path fill="none" stroke="rgb(255,211,32)" stroke-linejoin="round" d="M 1933,4424 L 2058,4673 2183,4424 1933,4424 Z"/>
 <path fill="rgb(255,211,32)" stroke="none" d="M 3011,4293 L 3136,4542 3261,4293 3011,4293 Z"/>
 <path fill="none" stroke="rgb(255,211,32)" stroke-linejoin="round" d="M 3011,4293 L 3136,4542 3261,4293 3011,4293 Z"/>
 <path fill="rgb(255,211,32)" stroke="none" d="M 4090,4516 L 4215,4766 4340,4516 4090,4516 Z"/>
 <path fill="none" stroke="rgb(255,211,32)" stroke-linejoin="round" d="M 4090,4516 L 4215,4766 4340,4516 4090,4516 Z"/>
 <path fill="rgb(255,211,32)" stroke="none" d="M 5169,4438 L 5294,4687 5419,4438 5169,4438 Z"/>
 <path fill="none" stroke="rgb(255,211,32)" stroke-linejoin="round" d="M 5169,4438 L 5294,4687 5419,4438 5169,4438 Z"/>
 <path fill="rgb(255,211,32)" stroke="none" d="M 6248,4351 L 6373,4600 6498,4351 6248,4351 Z"/>
 <path fill="none" stroke="rgb(255,211,32)" stroke-linejoin="round" d="M 6248,4351 L 6373,4600 6498,4351 6248,4351 Z"/>
 <path fill="rgb(255,211,32)" stroke="none" d="M 7327,1881 L 7452,2131 7577,1881 7327,1881 Z"/>
 <path fill="none" stroke="rgb(255,211,32)" stroke-linejoin="round" d="M 7327,1881 L 7452,2131 7577,1881 7327,1881 Z"/>
 <path fill="rgb(255,211,32)" stroke="none" d="M 8405,1905 L 8530,2155 8655,1905 8405,1905 Z"/>
 <path fill="none" stroke="rgb(255,211,32)" stroke-linejoin="round" d="M 8405,1905 L 8530,2155 8655,1905 8405,1905 Z"/>
 <path fill="rgb(255,211,32)" stroke="none" d="M 9484,4331 L 9609,4580 9734,4331 9484,4331 Z"/>
 <path fill="none" stroke="rgb(255,211,32)" stroke-linejoin="round" d="M 9484,4331 L 9609,4580 9734,4331 9484,4331 Z"/>
 <path fill="rgb(255,211,32)" stroke="none" d="M 10563,4214 L 10688,4464 10813,4214 10563,4214 Z"/>
 <path fill="none" stroke="rgb(255,211,32)" stroke-linejoin="round" d="M 10563,4214 L 10688,4464 10813,4214 10563,4214 Z"/>
 <path fill="rgb(255,211,32)" stroke="none" d="M 11642,4252 L 11767,4501 11892,4252 11642,4252 Z"/>
 <path fill="none" stroke="rgb(255,211,32)" stroke-linejoin="round" d="M 11642,4252 L 11767,4501 11892,4252 11642,4252 Z"/>
 <path fill="none" stroke="rgb(87,157,28)" stroke-width="80" stroke-linejoin="round" d="M 2058,4570 L 3136,4426 4215,4540 5294,4561 6373,4468 7452,2077 8530,2073 9609,4456 10688,4341 11767,4376"/>
 <path fill="rgb(87,157,28)" stroke="none" d="M 1933,4695 L 2183,4695 2058,4446 1933,4695 Z"/>
 <path fill="none" stroke="rgb(87,157,28)" stroke-linejoin="round" d="M 1933,4695 L 2183,4695 2058,4446 1933,4695 Z"/>
 <path fill="rgb(87,157,28)" stroke="none" d="M 3011,4550 L 3261,4550 3136,4301 3011,4550 Z"/>
 <path fill="none" stroke="rgb(87,157,28)" stroke-linejoin="round" d="M 3011,4550 L 3261,4550 3136,4301 3011,4550 Z"/>
 <path fill="rgb(87,157,28)" stroke="none" d="M 4090,4665 L 4340,4665 4215,4416 4090,4665 Z"/>
 <path fill="none" stroke="rgb(87,157,28)" stroke-linejoin="round" d="M 4090,4665 L 4340,4665 4215,4416 4090,4665 Z"/>
 <path fill="rgb(87,157,28)" stroke="none" d="M 5169,4686 L 5419,4686 5294,4437 5169,4686 Z"/>
 <path fill="none" stroke="rgb(87,157,28)" stroke-linejoin="round" d="M 5169,4686 L 5419,4686 5294,4437 5169,4686 Z"/>
 <path fill="rgb(87,157,28)" stroke="none" d="M 6248,4592 L 6498,4592 6373,4343 6248,4592 Z"/>
 <path fill="none" stroke="rgb(87,157,28)" stroke-linejoin="round" d="M 6248,4592 L 6498,4592 6373,4343 6248,4592 Z"/>
 <path fill="rgb(87,157,28)" stroke="none" d="M 7327,2202 L 7577,2202 7452,1952 7327,2202 Z"/>
 <path fill="none" stroke="rgb(87,157,28)" stroke-linejoin="round" d="M 7327,2202 L 7577,2202 7452,1952 7327,2202 Z"/>
 <path fill="rgb(87,157,28)" stroke="none" d="M 8405,2198 L 8655,2198 8530,1948 8405,2198 Z"/>
 <path fill="none" stroke="rgb(87,157,28)" stroke-linejoin="round" d="M 8405,2198 L 8655,2198 8530,1948 8405,2198 Z"/>
 <path fill="rgb(87,157,28)" stroke="none" d="M 9484,4580 L 9734,4580 9609,4331 9484,4580 Z"/>
 <path fill="none" stroke="rgb(87,157,28)" stroke-linejoin="round" d="M 9484,4580 L 9734,4580 9609,4331 9484,4580 Z"/>
 <path fill="rgb(87,157,28)" stroke="none" d="M 10563,4466 L 10813,4466 10688,4216 10563,4466 Z"/>
 <path fill="none" stroke="rgb(87,157,28)" stroke-linejoin="round" d="M 10563,4466 L 10813,4466 10688,4216 10563,4466 Z"/>
 <path fill="rgb(87,157,28)" stroke="none" d="M 11642,4500 L 11892,4500 11767,4251 11642,4500 Z"/>
 <path fill="none" stroke="rgb(87,157,28)" stroke-linejoin="round" d="M 11642,4500 L 11892,4500 11767,4251 11642,4500 Z"/>
 <text class="TextShape"><tspan class="TextParagraph" font-family="Liberation Sans, sans-serif" font-size="353px" font-weight="400"><tspan class="TextPosition" x="1727" y="7758"><tspan fill="rgb(0,0,0)" stroke="none">0.05</tspan></tspan></tspan></text>
 <text class="TextShape"><tspan class="TextParagraph" font-family="Liberation Sans, sans-serif" font-size="353px" font-weight="400"><tspan class="TextPosition" x="2898" y="7758"><tspan fill="rgb(0,0,0)" stroke="none">0.1</tspan></tspan></tspan></text>
 <text class="TextShape"><tspan class="TextParagraph" font-family="Liberation Sans, sans-serif" font-size="353px" font-weight="400"><tspan class="TextPosition" x="3884" y="7758"><tspan fill="rgb(0,0,0)" stroke="none">0.15</tspan></tspan></tspan></text>
 <text class="TextShape"><tspan class="TextParagraph" font-family="Liberation Sans, sans-serif" font-size="353px" font-weight="400"><tspan class="TextPosition" x="5056" y="7758"><tspan fill="rgb(0,0,0)" stroke="none">0.2</tspan></tspan></tspan></text>
 <text class="TextShape"><tspan class="TextParagraph" font-family="Liberation Sans, sans-serif" font-size="353px" font-weight="400"><tspan class="TextPosition" x="6042" y="7758"><tspan fill="rgb(0,0,0)" stroke="none">0.25</tspan></tspan></tspan></text>
 <text class="TextShape"><tspan class="TextParagraph" font-family="Liberation Sans, sans-serif" font-size="353px" font-weight="400"><tspan class="TextPosition" x="7214" y="7758"><tspan fill="rgb(0,0,0)" stroke="none">0.3</tspan></tspan></tspan></text>
 <text class="TextShape"><tspan class="TextParagraph" font-family="Liberation Sans, sans-serif" font-size="353px" font-weight="400"><tspan class="TextPosition" x="8200" y="7758"><tspan fill="rgb(0,0,0)" stroke="none">0.35</tspan></tspan></tspan></text>
 <text class="TextShape"><tspan class="TextParagraph" font-family="Liberation Sans, sans-serif" font-size="353px" font-weight="400"><tspan class="TextPosition" x="9372" y="7758"><tspan fill="rgb(0,0,0)" stroke="none">0.4</tspan></tspan></tspan></text>
 <text class="TextShape"><tspan class="TextParagraph" font-family="Liberation Sans, sans-serif" font-size="353px" font-weight="400"><tspan class="TextPosition" x="10358" y="7758"><tspan fill="rgb(0,0,0)" stroke="none">0.45</tspan></tspan></tspan></text>
 <text class="TextShape"><tspan class="TextParagraph" font-family="Liberation Sans, sans-serif" font-size="353px" font-weight="400"><tspan class="TextPosition" x="11530" y="7758"><tspan fill="rgb(0,0,0)" stroke="none">0.5</tspan></tspan></tspan></text>
 <text class="TextShape"><tspan class="TextParagraph" font-family="Liberation Sans, sans-serif" font-size="353px" font-weight="400"><tspan class="TextPosition" x="1623" y="7311"><tspan fill="rgb(0,0,0)" stroke="none">0</tspan></tspan></tspan></text>
 <text class="TextShape"><tspan class="TextParagraph" font-family="Liberation Sans, sans-serif" font-size="353px" font-weight="400"><tspan class="TextPosition" x="1332" y="6739"><tspan fill="rgb(0,0,0)" stroke="none">0.2</tspan></tspan></tspan></text>
 <text class="TextShape"><tspan class="TextParagraph" font-family="Liberation Sans, sans-serif" font-size="353px" font-weight="400"><tspan class="TextPosition" x="1332" y="6167"><tspan fill="rgb(0,0,0)" stroke="none">0.4</tspan></tspan></tspan></text>
 <text class="TextShape"><tspan class="TextParagraph" font-family="Liberation Sans, sans-serif" font-size="353px" font-weight="400"><tspan class="TextPosition" x="1332" y="5595"><tspan fill="rgb(0,0,0)" stroke="none">0.6</tspan></tspan></tspan></text>
 <text class="TextShape"><tspan class="TextParagraph" font-family="Liberation Sans, sans-serif" font-size="353px" font-weight="400"><tspan class="TextPosition" x="1332" y="5023"><tspan fill="rgb(0,0,0)" stroke="none">0.8</tspan></tspan></tspan></text>
 <text class="TextShape"><tspan class="TextParagraph" font-family="Liberation Sans, sans-serif" font-size="353px" font-weight="400"><tspan class="TextPosition" x="1623" y="4452"><tspan fill="rgb(0,0,0)" stroke="none">1</tspan></tspan></tspan></text>
 <text class="TextShape"><tspan class="TextParagraph" font-family="Liberation Sans, sans-serif" font-size="353px" font-weight="400"><tspan class="TextPosition" x="1332" y="3880"><tspan fill="rgb(0,0,0)" stroke="none">1.2</tspan></tspan></tspan></text>
 <text class="TextShape"><tspan class="TextParagraph" font-family="Liberation Sans, sans-serif" font-size="353px" font-weight="400"><tspan class="TextPosition" x="1332" y="3308"><tspan fill="rgb(0,0,0)" stroke="none">1.4</tspan></tspan></tspan></text>
 <text class="TextShape"><tspan class="TextParagraph" font-family="Liberation Sans, sans-serif" font-size="353px" font-weight="400"><tspan class="TextPosition" x="1332" y="2736"><tspan fill="rgb(0,0,0)" stroke="none">1.6</tspan></tspan></tspan></text>
 <text class="TextShape"><tspan class="TextParagraph" font-family="Liberation Sans, sans-serif" font-size="353px" font-weight="400"><tspan class="TextPosition" x="1332" y="2164"><tspan fill="rgb(0,0,0)" stroke="none">1.8</tspan></tspan></tspan></text>
 <text class="TextShape"><tspan class="TextParagraph" font-family="Liberation Sans, sans-serif" font-size="353px" font-weight="400"><tspan class="TextPosition" x="1623" y="1593"><tspan fill="rgb(0,0,0)" stroke="none">2</tspan></tspan></tspan></text>
 <text class="TextShape"><tspan class="TextParagraph" font-family="Liberation Sans, sans-serif" font-size="459px" font-weight="400"><tspan class="TextPosition" x="5910" y="851"><tspan fill="rgb(0,0,0)" stroke="none">Error and Momentum</tspan></tspan></tspan></text>
 <path fill="none" stroke="rgb(255,66,14)" stroke-width="80" stroke-linejoin="round" d="M 12443,4001 L 13243,4001"/>
 <path fill="rgb(255,66,14)" stroke="none" d="M 12737,4001 L 12843,4107 12948,4001 12843,3896 12737,4001 Z"/>
 <path fill="none" stroke="rgb(255,66,14)" stroke-linejoin="round" d="M 12737,4001 L 12843,4107 12948,4001 12843,3896 12737,4001 Z"/>
 <path fill="none" stroke="rgb(255,211,32)" stroke-width="80" stroke-linejoin="round" d="M 12443,4499 L 13243,4499"/>
 <path fill="rgb(255,211,32)" stroke="none" d="M 12737,4394 L 12843,4604 12948,4394 12737,4394 Z"/>
 <path fill="none" stroke="rgb(255,211,32)" stroke-linejoin="round" d="M 12737,4394 L 12843,4604 12948,4394 12737,4394 Z"/>
 <path fill="none" stroke="rgb(87,157,28)" stroke-width="80" stroke-linejoin="round" d="M 12443,4996 L 13243,4996"/>
 <path fill="rgb(87,157,28)" stroke="none" d="M 12737,5102 L 12948,5102 12843,4891 12737,5102 Z"/>
 <path fill="none" stroke="rgb(87,157,28)" stroke-linejoin="round" d="M 12737,5102 L 12948,5102 12843,4891 12737,5102 Z"/>
 <text class="TextShape"><tspan class="TextParagraph" font-family="Liberation Sans, sans-serif" font-size="353px" font-weight="400"><tspan class="TextPosition" x="13343" y="4121"><tspan fill="rgb(0,0,0)" stroke="none">Train Accuracy</tspan></tspan></tspan></text>
 <text class="TextShape"><tspan class="TextParagraph" font-family="Liberation Sans, sans-serif" font-size="353px" font-weight="400"><tspan class="TextPosition" x="13343" y="4618"><tspan fill="rgb(0,0,0)" stroke="none">VS accuracy</tspan></tspan></tspan></text>
 <text class="TextShape"><tspan class="TextParagraph" font-family="Liberation Sans, sans-serif" font-size="353px" font-weight="400"><tspan class="TextPosition" x="13343" y="5116"><tspan fill="rgb(0,0,0)" stroke="none">test accuracy</tspan></tspan></tspan></text>
 <text class="TextShape"><tspan class="TextParagraph" font-family="Liberation Sans, sans-serif" font-size="318px" font-weight="400"><tspan class="TextPosition" x="5862" y="8405"><tspan fill="rgb(0,0,0)" stroke="none">Momentum</tspan></tspan></tspan></text>
 <text class="TextShape" transform="translate(837,4993) rotate(-90) translate(-837,-4993)"><tspan class="TextParagraph" font-family="Liberation Sans, sans-serif" font-size="318px" font-weight="400"><tspan class="TextPosition" x="837" y="4993"><tspan fill="rgb(0,0,0)" stroke="none">Errors</tspan></tspan></tspan></text>
</svg>