<?xml version="1.0" encoding="UTF-8"?>
<!DOCTYPE svg PUBLIC "-//W3C//DTD SVG 1.1//EN" "http://www.w3.org/Graphics/SVG/1.1/DTD/svg11.dtd">
<svg width="160mm" height="90mm" viewBox="0 0 16000 9000" version="1.1" xmlns="http://www.w3.org/2000/svg" stroke-width="28.222" stroke-linejoin="round" xml:space="preserve">
 <path fill="rgb(255,255,255)" stroke="none" d="M 8000,8999 L 0,8999 0,0 15999,0 15999,8999 8000,8999 Z"/>
 <path fill="none" stroke="rgb(179,179,179)" stroke-linejoin="round" d="M 7257,7191 L 1767,7191 1767,1474 12746,1474 12746,7191 7257,7191 Z"/>
 <path fill="none" stroke="rgb(179,179,179)" stroke-linejoin="round" d="M 12746,7190 L 1767,7190"/>
 <path fill="none" stroke="rgb(179,179,179)" stroke-linejoin="round" d="M 12746,6475 L 1767,6475"/>
 <path fill="none" stroke="rgb(179,179,179)" stroke-linejoin="round" d="M 12746,5760 L 1767,5760"/>
 <path fill="none" stroke="rgb(179,179,179)" stroke-linejoin="round" d="M 12746,5045 L 1767,5045"/>
 <path fill="none" stroke="rgb(179,179,179)" stroke-linejoin="round" d="M 12746,4332 L 1767,4332"/>
 <path fill="none" stroke="rgb(179,179,179)" stroke-linejoin="round" d="M 12746,3617 L 1767,3617"/>
 <path fill="none" stroke="rgb(179,179,179)" stroke-linejoin="round" d="M 12746,2902 L 1767,2902"/>
 <path fill="none" stroke="rgb(179,179,179)" stroke-linejoin="round" d="M 12746,2187 L 1767,2187"/>
 <path fill="none" stroke="rgb(179,179,179)" stroke-linejoin="round" d="M 12746,1473 L 1767,1473"/>
 <path fill="none" stroke="rgb(179,179,179)" stroke-linejoin="round" d="M 1767,7340 L 1767,7190"/>
 <path fill="none" stroke="rgb(179,179,179)" stroke-linejoin="round" d="M 1767,7340 L 1767,7190"/>
 <path fill="none" stroke="rgb(179,179,179)" stroke-linejoin="round" d="M 2987,7340 L 2987,7190"/>
 <path fill="none" stroke="rgb(179,179,179)" stroke-linejoin="round" d="M 2987,7340 L 2987,7190"/>
 <path fill="none" stroke="rgb(179,179,179)" stroke-linejoin="round" d="M 4207,7340 L 4207,7190"/>
 <path fill="none" stroke="rgb(179,179,179)" stroke-linejoin="round" d="M 4207,7340 L 4207,7190"/>
 <path fill="none" stroke="rgb(179,179,179)" stroke-linejoin="round" d="M 5427,7340 L 5427,7190"/>
 <path fill="none" stroke="rgb(179,179,179)" stroke-linejoin="round" d="M 5427,7340 L 5427,7190"/>
 <path fill="none" stroke="rgb(179,179,179)" stroke-linejoin="round" d="M 6647,7340 L 6647,7190"/>
 <path fill="none" stroke="rgb(179,179,179)" stroke-linejoin="round" d="M 6647,7340 L 6647,7190"/>
 <path fill="none" stroke="rgb(179,179,179)" stroke-linejoin="round" d="M 7867,7340 L 7867,7190"/>
 <path fill="none" stroke="rgb(179,179,179)" stroke-linejoin="round" d="M 7867,7340 L 7867,7190"/>
 <path fill="none" stroke="rgb(179,179,179)" stroke-linejoin="round" d="M 9086,7340 L 9086,7190"/>
 <path fill="none" stroke="rgb(179,179,179)" stroke-linejoin="round" d="M 9086,7340 L 9086,7190"/>
 <path fill="none" stroke="rgb(179,179,179)" stroke-linejoin="round" d="M 10305,7340 L 10305,7190"/>
 <path fill="none" stroke="rgb(179,179,179)" stroke-linejoin="round" d="M 10305,7340 L 10305,7190"/>
 <path fill="none" stroke="rgb(179,179,179)" stroke-linejoin="round" d="M 11526,7340 L 11526,7190"/>
 <path fill="none" stroke="rgb(179,179,179)" stroke-linejoin="round" d="M 11526,7340 L 11526,7190"/>
 <path fill="none" stroke="rgb(179,179,179)" stroke-linejoin="round" d="M 12746,7340 L 12746,7190"/>
 <path fill="none" stroke="rgb(179,179,179)" stroke-linejoin="round" d="M 12746,7340 L 12746,7190"/>
 <path fill="none" stroke="rgb(179,179,179)" stroke-linejoin="round" d="M 1767,7190 L 12746,7190"/>
 <path fill="none" stroke="rgb(179,179,179)" stroke-linejoin="round" d="M 1617,7190 L 1767,7190"/>
 <path fill="none" stroke="rgb(179,179,179)" stroke-linejoin="round" d="M 1617,7190 L 1767,7190"/>
 <path fill="none" stroke="rgb(179,179,179)" stroke-linejoin="round" d="M 1617,6475 L 1767,6475"/>
 <path fill="none" stroke="rgb(179,179,179)" stroke-linejoin="round" d="M 1617,6475 L 1767,6475"/>
 <path fill="none" stroke="rgb(179,179,179)" stroke-linejoin="round" d="M 1617,5760 L 1767,5760"/>
 <path fill="none" stroke="rgb(179,179,179)" stroke-linejoin="round" d="M 1617,5760 L 1767,5760"/>
 <path fill="none" stroke="rgb(179,179,179)" stroke-linejoin="round" d="M 1617,5045 L 1767,5045"/>
 <path fill="none" stroke="rgb(179,179,179)" stroke-linejoin="round" d="M 1617,5045 L 1767,5045"/>
 <path fill="none" stroke="rgb(179,179,179)" stroke-linejoin="round" d="M 1617,4332 L 1767,4332"/>
 <path fill="none" stroke="rgb(179,179,179)" stroke-linejoin="round" d="M 1617,4332 L 1767,4332"/>
 <path fill="none" stroke="rgb(179,179,179)" stroke-linejoin="round" d="M 1617,3617 L 1767,3617"/>
 <path fill="none" stroke="rgb(179,179,179)" stroke-linejoin="round" d="M 1617,3617 L 1767,3617"/>
 <path fill="none" stroke="rgb(179,179,179)" stroke-linejoin="round" d="M 1617,2902 L 1767,2902"/>
 <path fill="none" stroke="rgb(179,179,179)" stroke-linejoin="round" d="M 1617,2902 L 1767,2902"/>
 <path fill="none" stroke="rgb(179,179,179)" stroke-linejoin="round" d="M 1617,2187 L 1767,2187"/>
 <path fill="none" stroke="rgb(179,179,179)" stroke-linejoin="round" d="M 1617,2187 L 1767,2187"/>
 <path fill="none" stroke="rgb(179,179,179)" stroke-linejoin="round" d="M 1617,1473 L 1767,1473"/>
 <path fill="none" stroke="rgb(179,179,179)" stroke-linejoin="round" d="M 1617,1473 L 1767,1473"/>
 <path fill="none" stroke="rgb(179,179,179)" stroke-linejoin="round" d="M 1767,7190 L 1767,1473"/>
 <path fill="none" stroke="rgb(0,69,134)" stroke-width="80" stroke-linejoin="round" d="M 1767,3617 L 2987,5045 4207,1830 5427,5045 6647,4688 7867,3259 9086,5403 10306,4332 11526,4332 12746,5403"/>
 <path fill="rgb(0,69,134)" stroke="none" d="M 1642,3492 L 1642,3742 1892,3742 1892,3492 1642,3492 Z"/>
 <path fill="none" stroke="rgb(0,69,134)" stroke-linejoin="round" d="M 1642,3492 L 1642,3742 1892,3742 1892,3492 1642,3492 Z"/>
 <path fill="rgb(0,69,134)" stroke="none" d="M 2862,4920 L 2862,5170 3112,5170 3112,4920 2862,4920 Z"/>
 <path fill="none" stroke="rgb(0,69,134)" stroke-linejoin="round" d="M 2862,4920 L 2862,5170 3112,5170 3112,4920 2862,4920 Z"/>
 <path fill="rgb(0,69,134)" stroke="none" d="M 4082,1705 L 4082,1955 4332,1955 4332,1705 4082,1705 Z"/>
 <path fill="none" stroke="rgb(0,69,134)" stroke-linejoin="round" d="M 4082,1705 L 4082,1955 4332,1955 4332,1705 4082,1705 Z"/>
 <path fill="rgb(0,69,134)" stroke="none" d="M 5302,4920 L 5302,5170 5552,5170 5552,4920 5302,4920 Z"/>
 <path fill="none" stroke="rgb(0,69,134)" stroke-linejoin="round" d="M 5302,4920 L 5302,5170 5552,5170 5552,4920 5302,4920 Z"/>
 <path fill="rgb(0,69,134)" stroke="none" d="M 6522,4563 L 6522,4813 6772,4813 6772,4563 6522,4563 Z"/>
 <path fill="none" stroke="rgb(0,69,134)" stroke-linejoin="round" d="M 6522,4563 L 6522,4813 6772,4813 6772,4563 6522,4563 Z"/>
 <path fill="rgb(0,69,134)" stroke="none" d="M 7742,3134 L 7742,3384 7992,3384 7992,3134 7742,3134 Z"/>
 <path fill="none" stroke="rgb(0,69,134)" stroke-linejoin="round" d="M 7742,3134 L 7742,3384 7992,3384 7992,3134 7742,3134 Z"/>
 <path fill="rgb(0,69,134)" stroke="none" d="M 8961,5278 L 8961,5528 9211,5528 9211,5278 8961,5278 Z"/>
 <path fill="none" stroke="rgb(0,69,134)" stroke-linejoin="round" d="M 8961,5278 L 8961,5528 9211,5528 9211,5278 8961,5278 Z"/>
 <path fill="rgb(0,69,134)" stroke="none" d="M 10181,4207 L 10181,4457 10431,4457 10431,4207 10181,4207 Z"/>
 <path fill="none" stroke="rgb(0,69,134)" stroke-linejoin="round" d="M 10181,4207 L 10181,4457 10431,4457 10431,4207 10181,4207 Z"/>
 <path fill="rgb(0,69,134)" stroke="none" d="M 11401,4207 L 11401,4457 11651,4457 11651,4207 11401,4207 Z"/>
 <path fill="none" stroke="rgb(0,69,134)" stroke-linejoin="round" d="M 11401,4207 L 11401,4457 11651,4457 11651,4207 11401,4207 Z"/>
 <path fill="rgb(0,69,134)" stroke="none" d="M 12621,5278 L 12621,5528 12871,5528 12871,5278 12621,5278 Z"/>
 <path fill="none" stroke="rgb(0,69,134)" stroke-linejoin="round" d="M 12621,5278 L 12621,5528 12871,5528 12871,5278 12621,5278 Z"/>
 <text class="TextShape"><tspan class="TextParagraph" font-family="Liberation Sans, sans-serif" font-size="353px" font-weight="400"><tspan class="TextPosition" x="1436" y="7758"><tspan fill="rgb(0,0,0)" stroke="none">0.05</tspan></tspan></tspan></text>
 <text class="TextShape"><tspan class="TextParagraph" font-family="Liberation Sans, sans-serif" font-size="353px" font-weight="400"><tspan class="TextPosition" x="2749" y="7758"><tspan fill="rgb(0,0,0)" stroke="none">0.1</tspan></tspan></tspan></text>
 <text class="TextShape"><tspan class="TextParagraph" font-family="Liberation Sans, sans-serif" font-size="353px" font-weight="400"><tspan class="TextPosition" x="3876" y="7758"><tspan fill="rgb(0,0,0)" stroke="none">0.15</tspan></tspan></tspan></text>
 <text class="TextShape"><tspan class="TextParagraph" font-family="Liberation Sans, sans-serif" font-size="353px" font-weight="400"><tspan class="TextPosition" x="5189" y="7758"><tspan fill="rgb(0,0,0)" stroke="none">0.2</tspan></tspan></tspan></text>
 <text class="TextShape"><tspan class="TextParagraph" font-family="Liberation Sans, sans-serif" font-size="353px" font-weight="400"><tspan class="TextPosition" x="6316" y="7758"><tspan fill="rgb(0,0,0)" stroke="none">0.25</tspan></tspan></tspan></text>
 <text class="TextShape"><tspan class="TextParagraph" font-family="Liberation Sans, sans-serif" font-size="353px" font-weight="400"><tspan class="TextPosition" x="7629" y="7758"><tspan fill="rgb(0,0,0)" stroke="none">0.3</tspan></tspan></tspan></text>
 <text class="TextShape"><tspan class="TextParagraph" font-family="Liberation Sans, sans-serif" font-size="353px" font-weight="400"><tspan class="TextPosition" x="8756" y="7758"><tspan fill="rgb(0,0,0)" stroke="none">0.35</tspan></tspan></tspan></text>
 <text class="TextShape"><tspan class="TextParagraph" font-family="Liberation Sans, sans-serif" font-size="353px" font-weight="400"><tspan class="TextPosition" x="10068" y="7758"><tspan fill="rgb(0,0,0)" stroke="none">0.4</tspan></tspan></tspan></text>
 <text class="TextShape"><tspan class="TextParagraph" font-family="Liberation Sans, sans-serif" font-size="353px" font-weight="400"><tspan class="TextPosition" x="11196" y="7758"><tspan fill="rgb(0,0,0)" stroke="none">0.45</tspan></tspan></tspan></text>
 <text class="TextShape"><tspan class="TextParagraph" font-family="Liberation Sans, sans-serif" font-size="353px" font-weight="400"><tspan class="TextPosition" x="12509" y="7758"><tspan fill="rgb(0,0,0)" stroke="none">0.5</tspan></tspan></tspan></text>
 <text class="TextShape"><tspan class="TextParagraph" font-family="Liberation Sans, sans-serif" font-size="353px" font-weight="400"><tspan class="TextPosition" x="1332" y="7311"><tspan fill="rgb(0,0,0)" stroke="none">0</tspan></tspan></tspan></text>
 <text class="TextShape"><tspan class="TextParagraph" font-family="Liberation Sans, sans-serif" font-size="353px" font-weight="400"><tspan class="TextPosition" x="1332" y="6596"><tspan fill="rgb(0,0,0)" stroke="none">2</tspan></tspan></tspan></text>
 <text class="TextShape"><tspan class="TextParagraph" font-family="Liberation Sans, sans-serif" font-size="353px" font-weight="400"><tspan class="TextPosition" x="1332" y="5881"><tspan fill="rgb(0,0,0)" stroke="none">4</tspan></tspan></tspan></text>
 <text class="TextShape"><tspan class="TextParagraph" font-family="Liberation Sans, sans-serif" font-size="353px" font-weight="400"><tspan class="TextPosition" x="1332" y="5166"><tspan fill="rgb(0,0,0)" stroke="none">6</tspan></tspan></tspan></text>
 <text class="TextShape"><tspan class="TextParagraph" font-family="Liberation Sans, sans-serif" font-size="353px" font-weight="400"><tspan class="TextPosition" x="1332" y="4452"><tspan fill="rgb(0,0,0)" stroke="none">8</tspan></tspan></tspan></text>
 <text class="TextShape"><tspan class="TextParagraph" font-family="Liberation Sans, sans-serif" font-size="353px" font-weight="400"><tspan class="TextPosition" x="1147" y="3737"><tspan fill="rgb(0,0,0)" stroke="none">10</tspan></tspan></tspan></text>
 <text class="TextShape"><tspan class="TextParagraph" font-family="Liberation Sans, sans-serif" font-size="353px" font-weight="400"><tspan class="TextPosition" x="1147" y="3022"><tspan fill="rgb(0,0,0)" stroke="none">12</tspan></tspan></tspan></text>
 <text class="TextShape"><tspan class="TextParagraph" font-family="Liberation Sans, sans-serif" font-size="353px" font-weight="400"><tspan class="TextPosition" x="1147" y="2307"><tspan fill="rgb(0,0,0)" stroke="none">14</tspan></tspan></tspan></text>
 <text class="TextShape"><tspan class="TextParagraph" font-family="Liberation Sans, sans-serif" font-size="353px" font-weight="400"><tspan class="TextPosition" x="1147" y="1593"><tspan fill="rgb(0,0,0)" stroke="none">16</tspan></tspan></tspan></text>
 <text class="TextShape"><tspan class="TextParagraph" font-family="Liberation Sans, sans-serif" font-size="459px" font-weight="400"><tspan class="TextPosition" x="5671" y="851"><tspan fill="rgb(0,0,0)" stroke="none">Momentum and Epochs</tspan></tspan></tspan></text>
 <path fill="none" stroke="rgb(0,69,134)" stroke-width="80" stroke-linejoin="round" d="M 13607,4499 L 14407,4499"/>
 <path fill="rgb(0,69,134)" stroke="none" d="M 13901,4394 L 13901,4604 14112,4604 14112,4394 13901,4394 Z"/>
 <path fill="none" stroke="rgb(0,69,134)" stroke-linejoin="round" d="M 13901,4394 L 13901,4604 14112,4604 14112,4394 13901,4394 Z"/>
 <text class="TextShape"><tspan class="TextParagraph" font-family="Liberation Sans, sans-serif" font-size="353px" font-weight="400"><tspan class="TextPosition" x="14507" y="4618"><tspan fill="rgb(0,0,0)" stroke="none">Epochs</tspan></tspan></tspan></text>
 <text class="TextShape"><tspan class="TextParagraph" font-family="Liberation Sans, sans-serif" font-size="318px" font-weight="400"><tspan class="TextPosition" x="6444" y="8405"><tspan fill="rgb(0,0,0)" stroke="none">Momentum</tspan></tspan></tspan></text>
 <text class="TextShape" transform="translate(837,6554) rotate(-90) translate(-837,-6554)"><tspan class="TextParagraph" font-family="Liberation Sans, sans-serif" font-size="318px" font-weight="400"><tspan class="TextPosition" x="837" y="6554"><tspan fill="rgb(0,0,0)" stroke="none">Epochs needed for Training</tspan></tspan></tspan></text>
</svg>