<?xml version="1.0" encoding="UTF-8"?>
<!DOCTYPE svg PUBLIC "-//W3C//DTD SVG 1.1//EN" "http://www.w3.org/Graphics/SVG/1.1/DTD/svg11.dtd">
<svg width="160mm" height="90mm" viewBox="0 0 16000 9000" version="1.1" xmlns="http://www.w3.org/2000/svg" stroke-width="28.222" stroke-linejoin="round" xml:space="preserve">
 <path fill="rgb(255,255,255)" stroke="none" d="M 8000,8999 L 0,8999 0,0 15999,0 15999,8999 8000,8999 Z"/>
 <path fill="none" stroke="rgb(179,179,179)" stroke-linejoin="round" d="M 6847,7191 L 2058,7191 2058,1474 11635,1474 11635,7191 6847,7191 Z"/>
 <path fill="none" stroke="rgb(179,179,179)" stroke-linejoin="round" d="M 11635,7190 L 2058,7190"/>
 <path fill="none" stroke="rgb(179,179,179)" stroke-linejoin="round" d="M 11635,6475 L 2058,6475"/>
 <path fill="none" stroke="rgb(179,179,179)" stroke-linejoin="round" d="M 11635,5760 L 2058,5760"/>
 <path fill="none" stroke="rgb(179,179,179)" stroke-linejoin="round" d="M 11635,5045 L 2058,5045"/>
 <path fill="none" stroke="rgb(179,179,179)" stroke-linejoin="round" d="M 11635,4332 L 2058,4332"/>
 <path fill="none" stroke="rgb(179,179,179)" stroke-linejoin="round" d="M 11635,3617 L 2058,3617"/>
 <path fill="none" stroke="rgb(179,179,179)" stroke-linejoin="round" d="M 11635,2902 L 2058,2902"/>
 <path fill="none" stroke="rgb(179,179,179)" stroke-linejoin="round" d="M 11635,2187 L 2058,2187"/>
 <path fill="none" stroke="rgb(179,179,179)" stroke-linejoin="round" d="M 11635,1473 L 2058,1473"/>
 <path fill="none" stroke="rgb(179,179,179)" stroke-linejoin="round" d="M 2058,7340 L 2058,7190"/>
 <path fill="none" stroke="rgb(179,179,179)" stroke-linejoin="round" d="M 2058,7340 L 2058,7190"/>
 <path fill="none" stroke="rgb(179,179,179)" stroke-linejoin="round" d="M 3122,7340 L 3122,7190"/>
 <path fill="none" stroke="rgb(179,179,179)" stroke-linejoin="round" d="M 3122,7340 L 3122,7190"/>
 <path fill="none" stroke="rgb(179,179,179)" stroke-linejoin="round" d="M 4186,7340 L 4186,7190"/>
 <path fill="none" stroke="rgb(179,179,179)" stroke-linejoin="round" d="M 4186,7340 L 4186,7190"/>
 <path fill="none" stroke="rgb(179,179,179)" stroke-linejoin="round" d="M 5250,7340 L 5250,7190"/>
 <path fill="none" stroke="rgb(179,179,179)" stroke-linejoin="round" d="M 5250,7340 L 5250,7190"/>
 <path fill="none" stroke="rgb(179,179,179)" stroke-linejoin="round" d="M 6314,7340 L 6314,7190"/>
 <path fill="none" stroke="rgb(179,179,179)" stroke-linejoin="round" d="M 6314,7340 L 6314,7190"/>
 <path fill="none" stroke="rgb(179,179,179)" stroke-linejoin="round" d="M 7379,7340 L 7379,7190"/>
 <path fill="none" stroke="rgb(179,179,179)" stroke-linejoin="round" d="M 7379,7340 L 7379,7190"/>
 <path fill="none" stroke="rgb(179,179,179)" stroke-linejoin="round" d="M 8442,7340 L 8442,7190"/>
 <path fill="none" stroke="rgb(179,179,179)" stroke-linejoin="round" d="M 8442,7340 L 8442,7190"/>
 <path fill="none" stroke="rgb(179,179,179)" stroke-linejoin="round" d="M 9506,7340 L 9506,7190"/>
 <path fill="none" stroke="rgb(179,179,179)" stroke-linejoin="round" d="M 9506,7340 L 9506,7190"/>
 <path fill="none" stroke="rgb(179,179,179)" stroke-linejoin="round" d="M 10570,7340 L 10570,7190"/>
 <path fill="none" stroke="rgb(179,179,179)" stroke-linejoin="round" d="M 10570,7340 L 10570,7190"/>
 <path fill="none" stroke="rgb(179,179,179)" stroke-linejoin="round" d="M 11635,7340 L 11635,7190"/>
 <path fill="none" stroke="rgb(179,179,179)" stroke-linejoin="round" d="M 11635,7340 L 11635,7190"/>
 <path fill="none" stroke="rgb(179,179,179)" stroke-linejoin="round" d="M 2058,7190 L 11635,7190"/>
 <path fill="none" stroke="rgb(179,179,179)" stroke-linejoin="round" d="M 1908,7190 L 2058,7190"/>
 <path fill="none" stroke="rgb(179,179,179)" stroke-linejoin="round" d="M 1908,7190 L 2058,7190"/>
 <path fill="none" stroke="rgb(179,179,179)" stroke-linejoin="round" d="M 1908,6475 L 2058,6475"/>
 <path fill="none" stroke="rgb(179,179,179)" stroke-linejoin="round" d="M 1908,6475 L 2058,6475"/>
 <path fill="none" stroke="rgb(179,179,179)" stroke-linejoin="round" d="M 1908,5760 L 2058,5760"/>
 <path fill="none" stroke="rgb(179,179,179)" stroke-linejoin="round" d="M 1908,5760 L 2058,5760"/>
 <path fill="none" stroke="rgb(179,179,179)" stroke-linejoin="round" d="M 1908,5045 L 2058,5045"/>
 <path fill="none" stroke="rgb(179,179,179)" stroke-linejoin="round" d="M 1908,5045 L 2058,5045"/>
 <path fill="none" stroke="rgb(179,179,179)" stroke-linejoin="round" d="M 1908,4332 L 2058,4332"/>
 <path fill="none" stroke="rgb(179,179,179)" stroke-linejoin="round" d="M 1908,4332 L 2058,4332"/>
 <path fill="none" stroke="rgb(179,179,179)" stroke-linejoin="round" d="M 1908,3617 L 2058,3617"/>
 <path fill="none" stroke="rgb(179,179,179)" stroke-linejoin="round" d="M 1908,3617 L 2058,3617"/>
 <path fill="none" stroke="rgb(179,179,179)" stroke-linejoin="round" d="M 1908,2902 L 2058,2902"/>
 <path fill="none" stroke="rgb(179,179,179)" stroke-linejoin="round" d="M 1908,2902 L 2058,2902"/>
 <path fill="none" stroke="rgb(179,179,179)" stroke-linejoin="round" d="M 1908,2187 L 2058,2187"/>
 <path fill="none" stroke="rgb(179,179,179)" stroke-linejoin="round" d="M 1908,2187 L 2058,2187"/>
 <path fill="none" stroke="rgb(179,179,179)" stroke-linejoin="round" d="M 1908,1473 L 2058,1473"/>
 <path fill="none" stroke="rgb(179,179,179)" stroke-linejoin="round" d="M 1908,1473 L 2058,1473"/>
 <path fill="none" stroke="rgb(179,179,179)" stroke-linejoin="round" d="M 2058,7190 L 2058,1473"/>
 <path fill="none" stroke="rgb(255,66,14)" stroke-width="80" stroke-linejoin="round" d="M 2058,5878 L 3122,5893 4186,5848 5250,5888 6314,5764 7379,2216 8442,3465 9506,4589 10570,5760 11635,4581"/>
 <path fill="rgb(255,66,14)" stroke="none" d="M 1933,5878 L 2058,6003 2183,5878 2058,5753 1933,5878 Z"/>
 <path fill="none" stroke="rgb(255,66,14)" stroke-linejoin="round" d="M 1933,5878 L 2058,6003 2183,5878 2058,5753 1933,5878 Z"/>
 <path fill="rgb(255,66,14)" stroke="none" d="M 2997,5893 L 3122,6018 3247,5893 3122,5768 2997,5893 Z"/>
 <path fill="none" stroke="rgb(255,66,14)" stroke-linejoin="round" d="M 2997,5893 L 3122,6018 3247,5893 3122,5768 2997,5893 Z"/>
 <path fill="rgb(255,66,14)" stroke="none" d="M 4061,5848 L 4186,5973 4311,5848 4186,5723 4061,5848 Z"/>
 <path fill="none" stroke="rgb(255,66,14)" stroke-linejoin="round" d="M 4061,5848 L 4186,5973 4311,5848 4186,5723 4061,5848 Z"/>
 <path fill="rgb(255,66,14)" stroke="none" d="M 5125,5888 L 5250,6013 5375,5888 5250,5763 5125,5888 Z"/>
 <path fill="none" stroke="rgb(255,66,14)" stroke-linejoin="round" d="M 5125,5888 L 5250,6013 5375,5888 5250,5763 5125,5888 Z"/>
 <path fill="rgb(255,66,14)" stroke="none" d="M 6189,5764 L 6314,5889 6439,5764 6314,5639 6189,5764 Z"/>
 <path fill="none" stroke="rgb(255,66,14)" stroke-linejoin="round" d="M 6189,5764 L 6314,5889 6439,5764 6314,5639 6189,5764 Z"/>
 <path fill="rgb(255,66,14)" stroke="none" d="M 7254,2216 L 7379,2341 7504,2216 7379,2091 7254,2216 Z"/>
 <path fill="none" stroke="rgb(255,66,14)" stroke-linejoin="round" d="M 7254,2216 L 7379,2341 7504,2216 7379,2091 7254,2216 Z"/>
 <path fill="rgb(255,66,14)" stroke="none" d="M 8317,3465 L 8442,3590 8567,3465 8442,3340 8317,3465 Z"/>
 <path fill="none" stroke="rgb(255,66,14)" stroke-linejoin="round" d="M 8317,3465 L 8442,3590 8567,3465 8442,3340 8317,3465 Z"/>
 <path fill="rgb(255,66,14)" stroke="none" d="M 9381,4589 L 9506,4714 9631,4589 9506,4465 9381,4589 Z"/>
 <path fill="none" stroke="rgb(255,66,14)" stroke-linejoin="round" d="M 9381,4589 L 9506,4714 9631,4589 9506,4465 9381,4589 Z"/>
 <path fill="rgb(255,66,14)" stroke="none" d="M 10445,5760 L 10570,5885 10695,5760 10570,5635 10445,5760 Z"/>
 <path fill="none" stroke="rgb(255,66,14)" stroke-linejoin="round" d="M 10445,5760 L 10570,5885 10695,5760 10570,5635 10445,5760 Z"/>
 <path fill="rgb(255,66,14)" stroke="none" d="M 11510,4581 L 11635,4706 11760,4581 11635,4457 11510,4581 Z"/>
 <path fill="none" stroke="rgb(255,66,14)" stroke-linejoin="round" d="M 11510,4581 L 11635,4706 11760,4581 11635,4457 11510,4581 Z"/>
 <path fill="none" stroke="rgb(255,211,32)" stroke-width="80" stroke-linejoin="round" d="M 2058,5880 L 3122,5885 4186,5846 5250,5892 6314,5764 7379,2137 8442,3489 9506,4686 10570,5760 11635,4500"/>
 <path fill="rgb(255,211,32)" stroke="none" d="M 1933,5755 L 2058,6005 2183,5755 1933,5755 Z"/>
 <path fill="none" stroke="rgb(255,211,32)" stroke-linejoin="round" d="M 1933,5755 L 2058,6005 2183,5755 1933,5755 Z"/>
 <path fill="rgb(255,211,32)" stroke="none" d="M 2997,5760 L 3122,6010 3247,5760 2997,5760 Z"/>
 <path fill="none" stroke="rgb(255,211,32)" stroke-linejoin="round" d="M 2997,5760 L 3122,6010 3247,5760 2997,5760 Z"/>
 <path fill="rgb(255,211,32)" stroke="none" d="M 4061,5721 L 4186,5971 4311,5721 4061,5721 Z"/>
 <path fill="none" stroke="rgb(255,211,32)" stroke-linejoin="round" d="M 4061,5721 L 4186,5971 4311,5721 4061,5721 Z"/>
 <path fill="rgb(255,211,32)" stroke="none" d="M 5125,5767 L 5250,6017 5375,5767 5125,5767 Z"/>
 <path fill="none" stroke="rgb(255,211,32)" stroke-linejoin="round" d="M 5125,5767 L 5250,6017 5375,5767 5125,5767 Z"/>
 <path fill="rgb(255,211,32)" stroke="none" d="M 6189,5639 L 6314,5889 6439,5639 6189,5639 Z"/>
 <path fill="none" stroke="rgb(255,211,32)" stroke-linejoin="round" d="M 6189,5639 L 6314,5889 6439,5639 6189,5639 Z"/>
 <path fill="rgb(255,211,32)" stroke="none" d="M 7254,2012 L 7379,2262 7504,2012 7254,2012 Z"/>
 <path fill="none" stroke="rgb(255,211,32)" stroke-linejoin="round" d="M 7254,2012 L 7379,2262 7504,2012 7254,2012 Z"/>
 <path fill="rgb(255,211,32)" stroke="none" d="M 8317,3364 L 8442,3614 8567,3364 8317,3364 Z"/>
 <path fill="none" stroke="rgb(255,211,32)" stroke-linejoin="round" d="M 8317,3364 L 8442,3614 8567,3364 8317,3364 Z"/>
 <path fill="rgb(255,211,32)" stroke="none" d="M 9381,4561 L 9506,4811 9631,4561 9381,4561 Z"/>
 <path fill="none" stroke="rgb(255,211,32)" stroke-linejoin="round" d="M 9381,4561 L 9506,4811 9631,4561 9381,4561 Z"/>
 <path fill="rgb(255,211,32)" stroke="none" d="M 10445,5635 L 10570,5885 10695,5635 10445,5635 Z"/>
 <path fill="none" stroke="rgb(255,211,32)" stroke-linejoin="round" d="M 10445,5635 L 10570,5885 10695,5635 10445,5635 Z"/>
 <path fill="rgb(255,211,32)" stroke="none" d="M 11510,4376 L 11635,4625 11760,4376 11510,4376 Z"/>
 <path fill="none" stroke="rgb(255,211,32)" stroke-linejoin="round" d="M 11510,4376 L 11635,4625 11760,4376 11510,4376 Z"/>
 <path fill="none" stroke="rgb(87,157,28)" stroke-width="80" stroke-linejoin="round" d="M 2058,5875 L 3122,5876 4186,5840 5250,5873 6314,5764 7379,2360 8442,3294 9506,4596 10570,5760 11635,4619"/>
 <path fill="rgb(87,157,28)" stroke="none" d="M 1933,6000 L 2183,6000 2058,5750 1933,6000 Z"/>
 <path fill="none" stroke="rgb(87,157,28)" stroke-linejoin="round" d="M 1933,6000 L 2183,6000 2058,5750 1933,6000 Z"/>
 <path fill="rgb(87,157,28)" stroke="none" d="M 2997,6001 L 3247,6001 3122,5751 2997,6001 Z"/>
 <path fill="none" stroke="rgb(87,157,28)" stroke-linejoin="round" d="M 2997,6001 L 3247,6001 3122,5751 2997,6001 Z"/>
 <path fill="rgb(87,157,28)" stroke="none" d="M 4061,5965 L 4311,5965 4186,5715 4061,5965 Z"/>
 <path fill="none" stroke="rgb(87,157,28)" stroke-linejoin="round" d="M 4061,5965 L 4311,5965 4186,5715 4061,5965 Z"/>
 <path fill="rgb(87,157,28)" stroke="none" d="M 5125,5998 L 5375,5998 5250,5748 5125,5998 Z"/>
 <path fill="none" stroke="rgb(87,157,28)" stroke-linejoin="round" d="M 5125,5998 L 5375,5998 5250,5748 5125,5998 Z"/>
 <path fill="rgb(87,157,28)" stroke="none" d="M 6189,5889 L 6439,5889 6314,5639 6189,5889 Z"/>
 <path fill="none" stroke="rgb(87,157,28)" stroke-linejoin="round" d="M 6189,5889 L 6439,5889 6314,5639 6189,5889 Z"/>
 <path fill="rgb(87,157,28)" stroke="none" d="M 7254,2485 L 7504,2485 7379,2235 7254,2485 Z"/>
 <path fill="none" stroke="rgb(87,157,28)" stroke-linejoin="round" d="M 7254,2485 L 7504,2485 7379,2235 7254,2485 Z"/>
 <path fill="rgb(87,157,28)" stroke="none" d="M 8317,3419 L 8567,3419 8442,3169 8317,3419 Z"/>
 <path fill="none" stroke="rgb(87,157,28)" stroke-linejoin="round" d="M 8317,3419 L 8567,3419 8442,3169 8317,3419 Z"/>
 <path fill="rgb(87,157,28)" stroke="none" d="M 9381,4721 L 9631,4721 9506,4472 9381,4721 Z"/>
 <path fill="none" stroke="rgb(87,157,28)" stroke-linejoin="round" d="M 9381,4721 L 9631,4721 9506,4472 9381,4721 Z"/>
 <path fill="rgb(87,157,28)" stroke="none" d="M 10445,5885 L 10695,5885 10570,5635 10445,5885 Z"/>
 <path fill="none" stroke="rgb(87,157,28)" stroke-linejoin="round" d="M 10445,5885 L 10695,5885 10570,5635 10445,5885 Z"/>
 <path fill="rgb(87,157,28)" stroke="none" d="M 11510,4744 L 11760,4744 11635,4495 11510,4744 Z"/>
 <path fill="none" stroke="rgb(87,157,28)" stroke-linejoin="round" d="M 11510,4744 L 11760,4744 11635,4495 11510,4744 Z"/>
 <text class="TextShape"><tspan class="TextParagraph" font-family="Liberation Sans, sans-serif" font-size="353px" font-weight="400"><tspan class="TextPosition" x="1965" y="7758"><tspan fill="rgb(0,0,0)" stroke="none">2</tspan></tspan></tspan></text>
 <text class="TextShape"><tspan class="TextParagraph" font-family="Liberation Sans, sans-serif" font-size="353px" font-weight="400"><tspan class="TextPosition" x="3029" y="7758"><tspan fill="rgb(0,0,0)" stroke="none">4</tspan></tspan></tspan></text>
 <text class="TextShape"><tspan class="TextParagraph" font-family="Liberation Sans, sans-serif" font-size="353px" font-weight="400"><tspan class="TextPosition" x="4093" y="7758"><tspan fill="rgb(0,0,0)" stroke="none">8</tspan></tspan></tspan></text>
 <text class="TextShape"><tspan class="TextParagraph" font-family="Liberation Sans, sans-serif" font-size="353px" font-weight="400"><tspan class="TextPosition" x="5065" y="7758"><tspan fill="rgb(0,0,0)" stroke="none">16</tspan></tspan></tspan></text>
 <text class="TextShape"><tspan class="TextParagraph" font-family="Liberation Sans, sans-serif" font-size="353px" font-weight="400"><tspan class="TextPosition" x="6129" y="7758"><tspan fill="rgb(0,0,0)" stroke="none">32</tspan></tspan></tspan></text>
 <text class="TextShape"><tspan class="TextParagraph" font-family="Liberation Sans, sans-serif" font-size="353px" font-weight="400"><tspan class="TextPosition" x="7194" y="7758"><tspan fill="rgb(0,0,0)" stroke="none">64</tspan></tspan></tspan></text>
 <text class="TextShape"><tspan class="TextParagraph" font-family="Liberation Sans, sans-serif" font-size="353px" font-weight="400"><tspan class="TextPosition" x="8165" y="7758"><tspan fill="rgb(0,0,0)" stroke="none">128</tspan></tspan></tspan></text>
 <text class="TextShape"><tspan class="TextParagraph" font-family="Liberation Sans, sans-serif" font-size="353px" font-weight="400"><tspan class="TextPosition" x="9229" y="7758"><tspan fill="rgb(0,0,0)" stroke="none">256</tspan></tspan></tspan></text>
 <text class="TextShape"><tspan class="TextParagraph" font-family="Liberation Sans, sans-serif" font-size="353px" font-weight="400"><tspan class="TextPosition" x="10293" y="7758"><tspan fill="rgb(0,0,0)" stroke="none">512</tspan></tspan></tspan></text>
 <text class="TextShape"><tspan class="TextParagraph" font-family="Liberation Sans, sans-serif" font-size="353px" font-weight="400"><tspan class="TextPosition" x="11265" y="7758"><tspan fill="rgb(0,0,0)" stroke="none">1024</tspan></tspan></tspan></text>
 <text class="TextShape"><tspan class="TextParagraph" font-family="Liberation Sans, sans-serif" font-size="353px" font-weight="400"><tspan class="TextPosition" x="1623" y="7311"><tspan fill="rgb(0,0,0)" stroke="none">0</tspan></tspan></tspan></text>
 <text class="TextShape"><tspan class="TextParagraph" font-family="Liberation Sans, sans-serif" font-size="353px" font-weight="400"><tspan class="TextPosition" x="1332" y="6596"><tspan fill="rgb(0,0,0)" stroke="none">0.5</tspan></tspan></tspan></text>
 <text class="TextShape"><tspan class="TextParagraph" font-family="Liberation Sans, sans-serif" font-size="353px" font-weight="400"><tspan class="TextPosition" x="1623" y="5881"><tspan fill="rgb(0,0,0)" stroke="none">1</tspan></tspan></tspan></text>
 <text class="TextShape"><tspan class="TextParagraph" font-family="Liberation Sans, sans-serif" font-size="353px" font-weight="400"><tspan class="TextPosition" x="1332" y="5166"><tspan fill="rgb(0,0,0)" stroke="none">1.5</tspan></tspan></tspan></text>
 <text class="TextShape"><tspan class="TextParagraph" font-family="Liberation Sans, sans-serif" font-size="353px" font-weight="400"><tspan class="TextPosition" x="1623" y="4452"><tspan fill="rgb(0,0,0)" stroke="none">2</tspan></tspan></tspan></text>
 <text class="TextShape"><tspan class="TextParagraph" font-family="Liberation Sans, sans-serif" font-size="353px" font-weight="400"><tspan class="TextPosition" x="1332" y="3737"><tspan fill="rgb(0,0,0)" stroke="none">2.5</tspan></tspan></tspan></text>
 <text class="TextShape"><tspan class="TextParagraph" font-family="Liberation Sans, sans-serif" font-size="353px" font-weight="400"><tspan class="TextPosition" x="1623" y="3022"><tspan fill="rgb(0,0,0)" stroke="none">3</tspan></tspan></tspan></text>
 <text class="TextShape"><tspan class="TextParagraph" font-family="Liberation Sans, sans-serif" font-size="353px" font-weight="400"><tspan class="TextPosition" x="1332" y="2307"><tspan fill="rgb(0,0,0)" stroke="none">3.5</tspan></tspan></tspan></text>
 <text class="TextShape"><tspan class="TextParagraph" font-family="Liberation Sans, sans-serif" font-size="353px" font-weight="400"><tspan class="TextPosition" x="1623" y="1593"><tspan fill="rgb(0,0,0)" stroke="none">4</tspan></tspan></tspan></text>
 <text class="TextShape"><tspan class="TextParagraph" font-family="Liberation Sans, sans-serif" font-size="459px" font-weight="400"><tspan class="TextPosition" x="6611" y="851"><tspan fill="rgb(0,0,0)" stroke="none">Hidden Nodes</tspan></tspan></tspan></text>
 <path fill="none" stroke="rgb(255,66,14)" stroke-width="80" stroke-linejoin="round" d="M 12443,4001 L 13243,4001"/>
 <path fill="rgb(255,66,14)" stroke="none" d="M 12737,4001 L 12843,4107 12948,4001 12843,3896 12737,4001 Z"/>
 <path fill="none" stroke="rgb(255,66,14)" stroke-linejoin="round" d="M 12737,4001 L 12843,4107 12948,4001 12843,3896 12737,4001 Z"/>
 <path fill="none" stroke="rgb(255,211,32)" stroke-width="80" stroke-linejoin="round" d="M 12443,4499 L 13243,4499"/>
 <path fill="rgb(255,211,32)" stroke="none" d="M 12737,4394 L 12843,4604 12948,4394 12737,4394 Z"/>
 <path fill="none" stroke="rgb(255,211,32)" stroke-linejoin="round" d="M 12737,4394 L 12843,4604 12948,4394 12737,4394 Z"/>
 <path fill="none" stroke="rgb(87,157,28)" stroke-width="80" stroke-linejoin="round" d="M 12443,4996 L 13243,4996"/>
 <path fill="rgb(87,157,28)" stroke="none" d="M 12737,5102 L 12948,5102 12843,4891 12737,5102 Z"/>
 <path fill="none" stroke="rgb(87,157,28)" stroke-linejoin="round" d="M 12737,5102 L 12948,5102 12843,4891 12737,5102 Z"/>
 <text class="TextShape"><tspan class="TextParagraph" font-family="Liberation Sans, sans-serif" font-size="353px" font-weight="400"><tspan class="TextPosition" x="13343" y="4121"><tspan fill="rgb(0,0,0)" stroke="none">Train Accuracy</tspan></tspan></tspan></text>
 <text class="TextShape"><tspan class="TextParagraph" font-family="Liberation Sans, sans-serif" font-size="353px" font-weight="400"><tspan class="TextPosition" x="13343" y="4618"><tspan fill="rgb(0,0,0)" stroke="none">VS accuracy</tspan></tspan></tspan></text>
 <text class="TextShape"><tspan class="TextParagraph" font-family="Liberation Sans, sans-serif" font-size="353px" font-weight="400"><tspan class="TextPosition" x="13343" y="5116"><tspan fill="rgb(0,0,0)" stroke="none">test accuracy</tspan></tspan></tspan></text>
 <text class="TextShape"><tspan class="TextParagraph" font-family="Liberation Sans, sans-serif" font-size="318px" font-weight="400"><tspan class="TextPosition" x="5399" y="8405"><tspan fill="rgb(0,0,0)" stroke="none">Number of Nodes</tspan></tspan></tspan></text>
 <text class="TextShape" transform="translate(837,4993) rotate(-90) translate(-837,-4993)"><tspan class="TextParagraph" font-family="Liberation Sans, sans-serif" font-size="318px" font-weight="400"><tspan class="TextPosition" x="837" y="4993"><tspan fill="rgb(0,0,0)" stroke="none">Errors</tspan></tspan></tspan></text>
</svg>